<mxfile host="app.diagrams.net" modified="2024-06-10T05:25:59.294Z" agent="Mozilla/5.0 (Windows NT 10.0; Win64; x64) AppleWebKit/537.36 (KHTML, like Gecko) Chrome/125.0.0.0 Safari/537.36" etag="obvJ0axcaY56aF1lFZWE" version="24.5.2" type="device">
  <diagram name="페이지-1" id="_-9EEhNZ582oooCMi_qd">
    <mxGraphModel dx="2019" dy="611" grid="1" gridSize="10" guides="1" tooltips="1" connect="1" arrows="1" fold="1" page="0" pageScale="1" pageWidth="827" pageHeight="1169" background="none" math="0" shadow="0">
      <root>
        <mxCell id="0" />
        <mxCell id="1" parent="0" />
        <mxCell id="s5COHGNMD4PNr6RxPExq-7" value="&lt;span style=&quot;background-color: initial;&quot;&gt;GET : /&lt;/span&gt;" style="shape=umlFrame;whiteSpace=wrap;html=1;pointerEvents=0;" parent="1" vertex="1">
          <mxGeometry x="-600" y="50" width="480" height="290" as="geometry" />
        </mxCell>
        <mxCell id="s5COHGNMD4PNr6RxPExq-53" value="Client" style="shape=umlLifeline;perimeter=lifelinePerimeter;whiteSpace=wrap;html=1;container=1;dropTarget=0;collapsible=0;recursiveResize=0;outlineConnect=0;portConstraint=eastwest;newEdgeStyle={&quot;curved&quot;:0,&quot;rounded&quot;:0};" parent="1" vertex="1">
          <mxGeometry x="500" y="80" width="100" height="230" as="geometry" />
        </mxCell>
        <mxCell id="s5COHGNMD4PNr6RxPExq-54" value="Server" style="shape=umlLifeline;perimeter=lifelinePerimeter;whiteSpace=wrap;html=1;container=1;dropTarget=0;collapsible=0;recursiveResize=0;outlineConnect=0;portConstraint=eastwest;newEdgeStyle={&quot;curved&quot;:0,&quot;rounded&quot;:0};" parent="1" vertex="1">
          <mxGeometry x="610" y="80" width="100" height="230" as="geometry" />
        </mxCell>
        <mxCell id="s5COHGNMD4PNr6RxPExq-55" value="MongoDB" style="shape=umlLifeline;perimeter=lifelinePerimeter;whiteSpace=wrap;html=1;container=1;dropTarget=0;collapsible=0;recursiveResize=0;outlineConnect=0;portConstraint=eastwest;newEdgeStyle={&quot;curved&quot;:0,&quot;rounded&quot;:0};" parent="1" vertex="1">
          <mxGeometry x="720" y="80" width="100" height="230" as="geometry" />
        </mxCell>
        <mxCell id="s5COHGNMD4PNr6RxPExq-56" value="" style="html=1;points=[[0,0,0,0,5],[0,1,0,0,-5],[1,0,0,0,5],[1,1,0,0,-5]];perimeter=orthogonalPerimeter;outlineConnect=0;targetShapes=umlLifeline;portConstraint=eastwest;newEdgeStyle={&quot;curved&quot;:0,&quot;rounded&quot;:0};" parent="s5COHGNMD4PNr6RxPExq-55" vertex="1">
          <mxGeometry x="45" y="110" width="10" height="40" as="geometry" />
        </mxCell>
        <mxCell id="s5COHGNMD4PNr6RxPExq-57" value="DB에서 검색어와&amp;nbsp;&lt;div&gt;동일한 방 제목검색&lt;/div&gt;" style="endArrow=open;endSize=12;dashed=1;html=1;rounded=0;" parent="s5COHGNMD4PNr6RxPExq-55" target="s5COHGNMD4PNr6RxPExq-56" edge="1">
          <mxGeometry x="0.2632" y="20" width="160" relative="1" as="geometry">
            <mxPoint x="-62" y="112" as="sourcePoint" />
            <mxPoint x="33" y="112" as="targetPoint" />
            <Array as="points" />
            <mxPoint as="offset" />
          </mxGeometry>
        </mxCell>
        <mxCell id="s5COHGNMD4PNr6RxPExq-59" value="&lt;div&gt;POST : /search&lt;/div&gt;" style="shape=umlFrame;whiteSpace=wrap;html=1;pointerEvents=0;" parent="1" vertex="1">
          <mxGeometry x="470" y="40" width="360" height="280" as="geometry" />
        </mxCell>
        <mxCell id="s5COHGNMD4PNr6RxPExq-60" value="" style="endArrow=open;endSize=12;dashed=1;html=1;rounded=0;" parent="1" edge="1">
          <mxGeometry width="160" relative="1" as="geometry">
            <mxPoint x="549.5" y="145" as="sourcePoint" />
            <mxPoint x="549.5" y="145" as="targetPoint" />
            <Array as="points" />
          </mxGeometry>
        </mxCell>
        <mxCell id="s5COHGNMD4PNr6RxPExq-62" value="" style="html=1;points=[[0,0,0,0,5],[0,1,0,0,-5],[1,0,0,0,5],[1,1,0,0,-5]];perimeter=orthogonalPerimeter;outlineConnect=0;targetShapes=umlLifeline;portConstraint=eastwest;newEdgeStyle={&quot;curved&quot;:0,&quot;rounded&quot;:0};" parent="1" vertex="1">
          <mxGeometry x="545" y="150" width="10" height="120" as="geometry" />
        </mxCell>
        <mxCell id="s5COHGNMD4PNr6RxPExq-65" value="" style="html=1;points=[[0,0,0,0,5],[0,1,0,0,-5],[1,0,0,0,5],[1,1,0,0,-5]];perimeter=orthogonalPerimeter;outlineConnect=0;targetShapes=umlLifeline;portConstraint=eastwest;newEdgeStyle={&quot;curved&quot;:0,&quot;rounded&quot;:0};" parent="1" vertex="1">
          <mxGeometry x="655" y="170" width="10" height="80" as="geometry" />
        </mxCell>
        <mxCell id="s5COHGNMD4PNr6RxPExq-66" value="방 제목 검색" style="endArrow=open;endSize=12;dashed=1;html=1;rounded=0;" parent="1" target="s5COHGNMD4PNr6RxPExq-65" edge="1">
          <mxGeometry x="0.0526" y="20" width="160" relative="1" as="geometry">
            <mxPoint x="560" y="180" as="sourcePoint" />
            <mxPoint x="555" y="165" as="targetPoint" />
            <Array as="points">
              <mxPoint x="610" y="180" />
            </Array>
            <mxPoint as="offset" />
          </mxGeometry>
        </mxCell>
        <mxCell id="s5COHGNMD4PNr6RxPExq-67" value="방 목록 전달" style="endArrow=open;endSize=12;dashed=1;html=1;rounded=0;exitX=0;exitY=1;exitDx=0;exitDy=-5;exitPerimeter=0;" parent="1" source="s5COHGNMD4PNr6RxPExq-56" target="s5COHGNMD4PNr6RxPExq-65" edge="1">
          <mxGeometry x="-0.3" y="-15" width="160" relative="1" as="geometry">
            <mxPoint x="890" y="270" as="sourcePoint" />
            <mxPoint x="1050" y="270" as="targetPoint" />
            <mxPoint as="offset" />
          </mxGeometry>
        </mxCell>
        <mxCell id="s5COHGNMD4PNr6RxPExq-68" value="방 목록 출력" style="endArrow=open;endSize=12;dashed=1;html=1;rounded=0;exitX=0;exitY=1;exitDx=0;exitDy=-5;exitPerimeter=0;" parent="1" edge="1">
          <mxGeometry x="-0.1" y="-10" width="160" relative="1" as="geometry">
            <mxPoint x="655" y="240" as="sourcePoint" />
            <mxPoint x="555" y="240" as="targetPoint" />
            <mxPoint as="offset" />
          </mxGeometry>
        </mxCell>
        <mxCell id="s5COHGNMD4PNr6RxPExq-81" value="Client" style="shape=umlLifeline;perimeter=lifelinePerimeter;whiteSpace=wrap;html=1;container=1;dropTarget=0;collapsible=0;recursiveResize=0;outlineConnect=0;portConstraint=eastwest;newEdgeStyle={&quot;curved&quot;:0,&quot;rounded&quot;:0};" parent="1" vertex="1">
          <mxGeometry x="940" y="80" width="100" height="230" as="geometry" />
        </mxCell>
        <mxCell id="s5COHGNMD4PNr6RxPExq-82" value="Server" style="shape=umlLifeline;perimeter=lifelinePerimeter;whiteSpace=wrap;html=1;container=1;dropTarget=0;collapsible=0;recursiveResize=0;outlineConnect=0;portConstraint=eastwest;newEdgeStyle={&quot;curved&quot;:0,&quot;rounded&quot;:0};" parent="1" vertex="1">
          <mxGeometry x="1050" y="80" width="100" height="230" as="geometry" />
        </mxCell>
        <mxCell id="TgLb7naTuCz-aT_ZFoOc-74" value="" style="html=1;points=[[0,0,0,0,5],[0,1,0,0,-5],[1,0,0,0,5],[1,1,0,0,-5]];perimeter=orthogonalPerimeter;outlineConnect=0;targetShapes=umlLifeline;portConstraint=eastwest;newEdgeStyle={&quot;curved&quot;:0,&quot;rounded&quot;:0};" vertex="1" parent="s5COHGNMD4PNr6RxPExq-82">
          <mxGeometry x="45" y="140" width="10" height="40" as="geometry" />
        </mxCell>
        <mxCell id="s5COHGNMD4PNr6RxPExq-83" value="MongoDB" style="shape=umlLifeline;perimeter=lifelinePerimeter;whiteSpace=wrap;html=1;container=1;dropTarget=0;collapsible=0;recursiveResize=0;outlineConnect=0;portConstraint=eastwest;newEdgeStyle={&quot;curved&quot;:0,&quot;rounded&quot;:0};" parent="1" vertex="1">
          <mxGeometry x="1160" y="80" width="100" height="230" as="geometry" />
        </mxCell>
        <mxCell id="s5COHGNMD4PNr6RxPExq-84" value="" style="html=1;points=[[0,0,0,0,5],[0,1,0,0,-5],[1,0,0,0,5],[1,1,0,0,-5]];perimeter=orthogonalPerimeter;outlineConnect=0;targetShapes=umlLifeline;portConstraint=eastwest;newEdgeStyle={&quot;curved&quot;:0,&quot;rounded&quot;:0};" parent="s5COHGNMD4PNr6RxPExq-83" vertex="1">
          <mxGeometry x="45" y="110" width="10" height="40" as="geometry" />
        </mxCell>
        <mxCell id="s5COHGNMD4PNr6RxPExq-85" value="DB에 방 정보 저장" style="endArrow=open;endSize=12;dashed=1;html=1;rounded=0;" parent="s5COHGNMD4PNr6RxPExq-83" target="s5COHGNMD4PNr6RxPExq-84" edge="1">
          <mxGeometry x="0.6842" y="20" width="160" relative="1" as="geometry">
            <mxPoint x="-50" y="120" as="sourcePoint" />
            <mxPoint x="-55" y="105" as="targetPoint" />
            <Array as="points" />
            <mxPoint as="offset" />
          </mxGeometry>
        </mxCell>
        <mxCell id="s5COHGNMD4PNr6RxPExq-86" value="&lt;div&gt;POST : /makeRoom&lt;/div&gt;" style="shape=umlFrame;whiteSpace=wrap;html=1;pointerEvents=0;width=90;height=30;" parent="1" vertex="1">
          <mxGeometry x="910" y="40" width="360" height="280" as="geometry" />
        </mxCell>
        <mxCell id="s5COHGNMD4PNr6RxPExq-87" value="" style="endArrow=open;endSize=12;dashed=1;html=1;rounded=0;" parent="1" edge="1">
          <mxGeometry width="160" relative="1" as="geometry">
            <mxPoint x="989.5" y="145" as="sourcePoint" />
            <mxPoint x="989.5" y="145" as="targetPoint" />
            <Array as="points" />
          </mxGeometry>
        </mxCell>
        <mxCell id="s5COHGNMD4PNr6RxPExq-88" value="" style="html=1;points=[[0,0,0,0,5],[0,1,0,0,-5],[1,0,0,0,5],[1,1,0,0,-5]];perimeter=orthogonalPerimeter;outlineConnect=0;targetShapes=umlLifeline;portConstraint=eastwest;newEdgeStyle={&quot;curved&quot;:0,&quot;rounded&quot;:0};" parent="1" vertex="1">
          <mxGeometry x="985" y="157" width="10" height="40" as="geometry" />
        </mxCell>
        <mxCell id="s5COHGNMD4PNr6RxPExq-90" value="방 제목, 태그 입력" style="endArrow=open;endSize=12;dashed=1;html=1;rounded=0;" parent="1" edge="1">
          <mxGeometry x="0.0526" y="20" width="160" relative="1" as="geometry">
            <mxPoint x="1000" y="180" as="sourcePoint" />
            <mxPoint x="1095" y="180" as="targetPoint" />
            <Array as="points">
              <mxPoint x="1050" y="180" />
            </Array>
            <mxPoint as="offset" />
          </mxGeometry>
        </mxCell>
        <mxCell id="s5COHGNMD4PNr6RxPExq-91" value="" style="endArrow=open;endSize=12;dashed=1;html=1;rounded=0;exitX=0;exitY=1;exitDx=0;exitDy=-5;exitPerimeter=0;" parent="1" edge="1">
          <mxGeometry x="-0.1" y="-5" width="160" relative="1" as="geometry">
            <mxPoint x="1205" y="228" as="sourcePoint" />
            <mxPoint x="1105" y="228" as="targetPoint" />
            <mxPoint as="offset" />
          </mxGeometry>
        </mxCell>
        <mxCell id="TgLb7naTuCz-aT_ZFoOc-75" value="DB에 저장될방 목록 전달" style="edgeLabel;html=1;align=center;verticalAlign=middle;resizable=0;points=[];" vertex="1" connectable="0" parent="s5COHGNMD4PNr6RxPExq-91">
          <mxGeometry x="0.3" y="1" relative="1" as="geometry">
            <mxPoint x="25" y="11" as="offset" />
          </mxGeometry>
        </mxCell>
        <mxCell id="s5COHGNMD4PNr6RxPExq-92" value="만든 채팅방 출력" style="endArrow=open;endSize=12;dashed=1;html=1;rounded=0;exitX=0;exitY=1;exitDx=0;exitDy=-5;exitPerimeter=0;" parent="1" edge="1">
          <mxGeometry x="-0.1059" y="-10" width="160" relative="1" as="geometry">
            <mxPoint x="1095" y="240" as="sourcePoint" />
            <mxPoint x="995" y="240" as="targetPoint" />
            <mxPoint as="offset" />
          </mxGeometry>
        </mxCell>
        <mxCell id="s5COHGNMD4PNr6RxPExq-95" value="Client" style="shape=umlLifeline;perimeter=lifelinePerimeter;whiteSpace=wrap;html=1;container=1;dropTarget=0;collapsible=0;recursiveResize=0;outlineConnect=0;portConstraint=eastwest;newEdgeStyle={&quot;curved&quot;:0,&quot;rounded&quot;:0};" parent="1" vertex="1">
          <mxGeometry x="-460" y="740" width="100" height="300" as="geometry" />
        </mxCell>
        <mxCell id="s5COHGNMD4PNr6RxPExq-96" value="Server" style="shape=umlLifeline;perimeter=lifelinePerimeter;whiteSpace=wrap;html=1;container=1;dropTarget=0;collapsible=0;recursiveResize=0;outlineConnect=0;portConstraint=eastwest;newEdgeStyle={&quot;curved&quot;:0,&quot;rounded&quot;:0};" parent="1" vertex="1">
          <mxGeometry x="-280" y="730" width="100" height="310" as="geometry" />
        </mxCell>
        <mxCell id="TgLb7naTuCz-aT_ZFoOc-80" value="" style="html=1;points=[[0,0,0,0,5],[0,1,0,0,-5],[1,0,0,0,5],[1,1,0,0,-5]];perimeter=orthogonalPerimeter;outlineConnect=0;targetShapes=umlLifeline;portConstraint=eastwest;newEdgeStyle={&quot;curved&quot;:0,&quot;rounded&quot;:0};" vertex="1" parent="s5COHGNMD4PNr6RxPExq-96">
          <mxGeometry x="45" y="90" width="10" height="40" as="geometry" />
        </mxCell>
        <mxCell id="s5COHGNMD4PNr6RxPExq-97" value="MongoDB" style="shape=umlLifeline;perimeter=lifelinePerimeter;whiteSpace=wrap;html=1;container=1;dropTarget=0;collapsible=0;recursiveResize=0;outlineConnect=0;portConstraint=eastwest;newEdgeStyle={&quot;curved&quot;:0,&quot;rounded&quot;:0};" parent="1" vertex="1">
          <mxGeometry x="-60" y="740" width="100" height="300" as="geometry" />
        </mxCell>
        <mxCell id="s5COHGNMD4PNr6RxPExq-98" value="" style="html=1;points=[[0,0,0,0,5],[0,1,0,0,-5],[1,0,0,0,5],[1,1,0,0,-5]];perimeter=orthogonalPerimeter;outlineConnect=0;targetShapes=umlLifeline;portConstraint=eastwest;newEdgeStyle={&quot;curved&quot;:0,&quot;rounded&quot;:0};" parent="s5COHGNMD4PNr6RxPExq-97" vertex="1">
          <mxGeometry x="45" y="100" width="10" height="50" as="geometry" />
        </mxCell>
        <mxCell id="s5COHGNMD4PNr6RxPExq-100" value="nginx" style="shape=umlLifeline;perimeter=lifelinePerimeter;whiteSpace=wrap;html=1;container=1;dropTarget=0;collapsible=0;recursiveResize=0;outlineConnect=0;portConstraint=eastwest;newEdgeStyle={&quot;curved&quot;:0,&quot;rounded&quot;:0};" parent="1" vertex="1">
          <mxGeometry x="-570" y="740" width="100" height="290" as="geometry" />
        </mxCell>
        <mxCell id="s5COHGNMD4PNr6RxPExq-101" value="&lt;span style=&quot;background-color: initial;&quot;&gt;GET : /user&lt;/span&gt;" style="shape=umlFrame;whiteSpace=wrap;html=1;pointerEvents=0;" parent="1" vertex="1">
          <mxGeometry x="-600" y="685" width="690" height="370" as="geometry" />
        </mxCell>
        <mxCell id="s5COHGNMD4PNr6RxPExq-102" value="" style="endArrow=open;endSize=12;dashed=1;html=1;rounded=0;" parent="1" source="s5COHGNMD4PNr6RxPExq-103" target="s5COHGNMD4PNr6RxPExq-100" edge="1">
          <mxGeometry width="160" relative="1" as="geometry">
            <mxPoint x="-430" y="930" as="sourcePoint" />
            <mxPoint x="-280" y="930" as="targetPoint" />
            <Array as="points" />
          </mxGeometry>
        </mxCell>
        <mxCell id="s5COHGNMD4PNr6RxPExq-103" value="" style="html=1;points=[[0,0,0,0,5],[0,1,0,0,-5],[1,0,0,0,5],[1,1,0,0,-5]];perimeter=orthogonalPerimeter;outlineConnect=0;targetShapes=umlLifeline;portConstraint=eastwest;newEdgeStyle={&quot;curved&quot;:0,&quot;rounded&quot;:0};" parent="1" vertex="1">
          <mxGeometry x="-525" y="790" width="10" height="30" as="geometry" />
        </mxCell>
        <mxCell id="s5COHGNMD4PNr6RxPExq-105" value="GET : /user" style="endArrow=open;endSize=12;dashed=1;html=1;rounded=0;entryX=1;entryY=0;entryDx=0;entryDy=5;entryPerimeter=0;" parent="1" source="s5COHGNMD4PNr6RxPExq-95" target="s5COHGNMD4PNr6RxPExq-103" edge="1">
          <mxGeometry width="160" relative="1" as="geometry">
            <mxPoint x="-440" y="930" as="sourcePoint" />
            <mxPoint x="-280" y="930" as="targetPoint" />
          </mxGeometry>
        </mxCell>
        <mxCell id="s5COHGNMD4PNr6RxPExq-106" value="유저 페이지 front" style="endArrow=open;endSize=12;dashed=1;html=1;rounded=0;exitX=1;exitY=1;exitDx=0;exitDy=-5;exitPerimeter=0;entryX=0;entryY=0;entryDx=0;entryDy=5;entryPerimeter=0;" parent="1" source="s5COHGNMD4PNr6RxPExq-103" edge="1">
          <mxGeometry width="160" relative="1" as="geometry">
            <mxPoint x="-70" y="930" as="sourcePoint" />
            <mxPoint x="-415" y="815" as="targetPoint" />
            <Array as="points" />
          </mxGeometry>
        </mxCell>
        <mxCell id="s5COHGNMD4PNr6RxPExq-108" value="&lt;div style=&quot;text-align: left;&quot;&gt;참여한 채팅방 목록 요청&lt;/div&gt;" style="endArrow=open;endSize=12;dashed=1;html=1;rounded=0;" parent="1" edge="1">
          <mxGeometry x="0.2632" y="20" width="160" relative="1" as="geometry">
            <mxPoint x="-400" y="840" as="sourcePoint" />
            <mxPoint x="-235" y="840" as="targetPoint" />
            <Array as="points">
              <mxPoint x="-350" y="840" />
            </Array>
            <mxPoint as="offset" />
          </mxGeometry>
        </mxCell>
        <mxCell id="s5COHGNMD4PNr6RxPExq-109" value="" style="endArrow=open;endSize=12;dashed=1;html=1;rounded=0;exitX=0;exitY=1;exitDx=0;exitDy=-5;exitPerimeter=0;" parent="1" source="s5COHGNMD4PNr6RxPExq-98" edge="1">
          <mxGeometry x="-0.3" y="-15" width="160" relative="1" as="geometry">
            <mxPoint x="-70" y="930" as="sourcePoint" />
            <mxPoint x="-225" y="885" as="targetPoint" />
            <mxPoint as="offset" />
          </mxGeometry>
        </mxCell>
        <mxCell id="s5COHGNMD4PNr6RxPExq-110" value="참여한 채팅방 목록 출력" style="endArrow=open;endSize=12;dashed=1;html=1;rounded=0;" parent="1" edge="1">
          <mxGeometry x="-0.1" y="-10" width="160" relative="1" as="geometry">
            <mxPoint x="-235" y="900" as="sourcePoint" />
            <mxPoint x="-405" y="900" as="targetPoint" />
            <mxPoint as="offset" />
          </mxGeometry>
        </mxCell>
        <mxCell id="s5COHGNMD4PNr6RxPExq-123" value="Client" style="shape=umlLifeline;perimeter=lifelinePerimeter;whiteSpace=wrap;html=1;container=1;dropTarget=0;collapsible=0;recursiveResize=0;outlineConnect=0;portConstraint=eastwest;newEdgeStyle={&quot;curved&quot;:0,&quot;rounded&quot;:0};" parent="1" vertex="1">
          <mxGeometry x="1340" y="90" width="100" height="320" as="geometry" />
        </mxCell>
        <mxCell id="s5COHGNMD4PNr6RxPExq-124" value="Server" style="shape=umlLifeline;perimeter=lifelinePerimeter;whiteSpace=wrap;html=1;container=1;dropTarget=0;collapsible=0;recursiveResize=0;outlineConnect=0;portConstraint=eastwest;newEdgeStyle={&quot;curved&quot;:0,&quot;rounded&quot;:0};" parent="1" vertex="1">
          <mxGeometry x="1450" y="90" width="100" height="320" as="geometry" />
        </mxCell>
        <mxCell id="s5COHGNMD4PNr6RxPExq-125" value="MongoDB" style="shape=umlLifeline;perimeter=lifelinePerimeter;whiteSpace=wrap;html=1;container=1;dropTarget=0;collapsible=0;recursiveResize=0;outlineConnect=0;portConstraint=eastwest;newEdgeStyle={&quot;curved&quot;:0,&quot;rounded&quot;:0};" parent="1" vertex="1">
          <mxGeometry x="1560" y="90" width="100" height="320" as="geometry" />
        </mxCell>
        <mxCell id="s5COHGNMD4PNr6RxPExq-126" value="" style="html=1;points=[[0,0,0,0,5],[0,1,0,0,-5],[1,0,0,0,5],[1,1,0,0,-5]];perimeter=orthogonalPerimeter;outlineConnect=0;targetShapes=umlLifeline;portConstraint=eastwest;newEdgeStyle={&quot;curved&quot;:0,&quot;rounded&quot;:0};" parent="s5COHGNMD4PNr6RxPExq-125" vertex="1">
          <mxGeometry x="45" y="110" width="10" height="40" as="geometry" />
        </mxCell>
        <mxCell id="s5COHGNMD4PNr6RxPExq-127" value="ID기준으로 조회 후 삭제" style="endArrow=open;endSize=12;dashed=1;html=1;rounded=0;" parent="s5COHGNMD4PNr6RxPExq-125" target="s5COHGNMD4PNr6RxPExq-126" edge="1">
          <mxGeometry x="0.6842" y="20" width="160" relative="1" as="geometry">
            <mxPoint x="-50" y="120" as="sourcePoint" />
            <mxPoint x="-55" y="105" as="targetPoint" />
            <Array as="points" />
            <mxPoint as="offset" />
          </mxGeometry>
        </mxCell>
        <mxCell id="s5COHGNMD4PNr6RxPExq-129" value="&lt;span style=&quot;background-color: initial;&quot;&gt;POST : /user/delete/room&lt;/span&gt;" style="shape=umlFrame;whiteSpace=wrap;html=1;pointerEvents=0;width=120;height=30;" parent="1" vertex="1">
          <mxGeometry x="1310" y="50" width="380" height="370" as="geometry" />
        </mxCell>
        <mxCell id="s5COHGNMD4PNr6RxPExq-130" value="" style="endArrow=open;endSize=12;dashed=1;html=1;rounded=0;" parent="1" edge="1">
          <mxGeometry width="160" relative="1" as="geometry">
            <mxPoint x="1389.5" y="155" as="sourcePoint" />
            <mxPoint x="1389.5" y="155" as="targetPoint" />
            <Array as="points" />
          </mxGeometry>
        </mxCell>
        <mxCell id="s5COHGNMD4PNr6RxPExq-132" value="" style="html=1;points=[[0,0,0,0,5],[0,1,0,0,-5],[1,0,0,0,5],[1,1,0,0,-5]];perimeter=orthogonalPerimeter;outlineConnect=0;targetShapes=umlLifeline;portConstraint=eastwest;newEdgeStyle={&quot;curved&quot;:0,&quot;rounded&quot;:0};" parent="1" vertex="1">
          <mxGeometry x="1385" y="160" width="10" height="110" as="geometry" />
        </mxCell>
        <mxCell id="s5COHGNMD4PNr6RxPExq-135" value="" style="html=1;points=[[0,0,0,0,5],[0,1,0,0,-5],[1,0,0,0,5],[1,1,0,0,-5]];perimeter=orthogonalPerimeter;outlineConnect=0;targetShapes=umlLifeline;portConstraint=eastwest;newEdgeStyle={&quot;curved&quot;:0,&quot;rounded&quot;:0};" parent="1" vertex="1">
          <mxGeometry x="1495" y="180" width="10" height="80" as="geometry" />
        </mxCell>
        <mxCell id="s5COHGNMD4PNr6RxPExq-136" value="채팅방 삭제요청" style="endArrow=open;endSize=12;dashed=1;html=1;rounded=0;" parent="1" target="s5COHGNMD4PNr6RxPExq-135" edge="1">
          <mxGeometry x="0.0526" y="20" width="160" relative="1" as="geometry">
            <mxPoint x="1400" y="190" as="sourcePoint" />
            <mxPoint x="1395" y="175" as="targetPoint" />
            <Array as="points">
              <mxPoint x="1450" y="190" />
            </Array>
            <mxPoint as="offset" />
          </mxGeometry>
        </mxCell>
        <mxCell id="s5COHGNMD4PNr6RxPExq-137" value="DB에서 삭제" style="endArrow=open;endSize=12;dashed=1;html=1;rounded=0;exitX=0;exitY=1;exitDx=0;exitDy=-5;exitPerimeter=0;" parent="1" source="s5COHGNMD4PNr6RxPExq-126" target="s5COHGNMD4PNr6RxPExq-135" edge="1">
          <mxGeometry x="0.1" y="-5" width="160" relative="1" as="geometry">
            <mxPoint x="1730" y="280" as="sourcePoint" />
            <mxPoint x="1890" y="280" as="targetPoint" />
            <mxPoint as="offset" />
          </mxGeometry>
        </mxCell>
        <mxCell id="s5COHGNMD4PNr6RxPExq-138" value="삭제완료" style="endArrow=open;endSize=12;dashed=1;html=1;rounded=0;exitX=0;exitY=1;exitDx=0;exitDy=-5;exitPerimeter=0;" parent="1" edge="1">
          <mxGeometry x="-0.1" y="-10" width="160" relative="1" as="geometry">
            <mxPoint x="1495" y="250" as="sourcePoint" />
            <mxPoint x="1395" y="250" as="targetPoint" />
            <mxPoint as="offset" />
          </mxGeometry>
        </mxCell>
        <mxCell id="s5COHGNMD4PNr6RxPExq-168" value="Client" style="shape=umlLifeline;perimeter=lifelinePerimeter;whiteSpace=wrap;html=1;container=1;dropTarget=0;collapsible=0;recursiveResize=0;outlineConnect=0;portConstraint=eastwest;newEdgeStyle={&quot;curved&quot;:0,&quot;rounded&quot;:0};" parent="1" vertex="1">
          <mxGeometry x="1750" y="90" width="100" height="320" as="geometry" />
        </mxCell>
        <mxCell id="s5COHGNMD4PNr6RxPExq-169" value="Server" style="shape=umlLifeline;perimeter=lifelinePerimeter;whiteSpace=wrap;html=1;container=1;dropTarget=0;collapsible=0;recursiveResize=0;outlineConnect=0;portConstraint=eastwest;newEdgeStyle={&quot;curved&quot;:0,&quot;rounded&quot;:0};" parent="1" vertex="1">
          <mxGeometry x="1860" y="90" width="100" height="320" as="geometry" />
        </mxCell>
        <mxCell id="s5COHGNMD4PNr6RxPExq-170" value="MongoDB" style="shape=umlLifeline;perimeter=lifelinePerimeter;whiteSpace=wrap;html=1;container=1;dropTarget=0;collapsible=0;recursiveResize=0;outlineConnect=0;portConstraint=eastwest;newEdgeStyle={&quot;curved&quot;:0,&quot;rounded&quot;:0};" parent="1" vertex="1">
          <mxGeometry x="1970" y="90" width="100" height="320" as="geometry" />
        </mxCell>
        <mxCell id="s5COHGNMD4PNr6RxPExq-171" value="" style="html=1;points=[[0,0,0,0,5],[0,1,0,0,-5],[1,0,0,0,5],[1,1,0,0,-5]];perimeter=orthogonalPerimeter;outlineConnect=0;targetShapes=umlLifeline;portConstraint=eastwest;newEdgeStyle={&quot;curved&quot;:0,&quot;rounded&quot;:0};" parent="s5COHGNMD4PNr6RxPExq-170" vertex="1">
          <mxGeometry x="45" y="110" width="10" height="40" as="geometry" />
        </mxCell>
        <mxCell id="s5COHGNMD4PNr6RxPExq-172" value="ID 기준으로 삭제" style="endArrow=open;endSize=12;dashed=1;html=1;rounded=0;" parent="s5COHGNMD4PNr6RxPExq-170" target="s5COHGNMD4PNr6RxPExq-171" edge="1">
          <mxGeometry x="0.8947" y="20" width="160" relative="1" as="geometry">
            <mxPoint x="-50" y="120" as="sourcePoint" />
            <mxPoint x="-55" y="105" as="targetPoint" />
            <Array as="points" />
            <mxPoint as="offset" />
          </mxGeometry>
        </mxCell>
        <mxCell id="s5COHGNMD4PNr6RxPExq-174" value="&lt;span style=&quot;background-color: initial;&quot;&gt;POST : /user/delete/recomment&lt;/span&gt;" style="shape=umlFrame;whiteSpace=wrap;html=1;pointerEvents=0;width=150;height=30;" parent="1" vertex="1">
          <mxGeometry x="1720" y="50" width="390" height="370" as="geometry" />
        </mxCell>
        <mxCell id="s5COHGNMD4PNr6RxPExq-175" value="" style="endArrow=open;endSize=12;dashed=1;html=1;rounded=0;" parent="1" edge="1">
          <mxGeometry width="160" relative="1" as="geometry">
            <mxPoint x="1799.5" y="155" as="sourcePoint" />
            <mxPoint x="1799.5" y="155" as="targetPoint" />
            <Array as="points" />
          </mxGeometry>
        </mxCell>
        <mxCell id="s5COHGNMD4PNr6RxPExq-177" value="" style="html=1;points=[[0,0,0,0,5],[0,1,0,0,-5],[1,0,0,0,5],[1,1,0,0,-5]];perimeter=orthogonalPerimeter;outlineConnect=0;targetShapes=umlLifeline;portConstraint=eastwest;newEdgeStyle={&quot;curved&quot;:0,&quot;rounded&quot;:0};" parent="1" vertex="1">
          <mxGeometry x="1795" y="160" width="10" height="110" as="geometry" />
        </mxCell>
        <mxCell id="s5COHGNMD4PNr6RxPExq-180" value="" style="html=1;points=[[0,0,0,0,5],[0,1,0,0,-5],[1,0,0,0,5],[1,1,0,0,-5]];perimeter=orthogonalPerimeter;outlineConnect=0;targetShapes=umlLifeline;portConstraint=eastwest;newEdgeStyle={&quot;curved&quot;:0,&quot;rounded&quot;:0};" parent="1" vertex="1">
          <mxGeometry x="1905" y="180" width="10" height="80" as="geometry" />
        </mxCell>
        <mxCell id="s5COHGNMD4PNr6RxPExq-181" value="&lt;div style=&quot;text-align: left;&quot;&gt;댓글 삭제요청&lt;br&gt;&lt;/div&gt;" style="endArrow=open;endSize=12;dashed=1;html=1;rounded=0;" parent="1" target="s5COHGNMD4PNr6RxPExq-180" edge="1">
          <mxGeometry x="0.0526" y="20" width="160" relative="1" as="geometry">
            <mxPoint x="1810" y="190" as="sourcePoint" />
            <mxPoint x="1805" y="175" as="targetPoint" />
            <Array as="points">
              <mxPoint x="1860" y="190" />
            </Array>
            <mxPoint as="offset" />
          </mxGeometry>
        </mxCell>
        <mxCell id="s5COHGNMD4PNr6RxPExq-182" value="DB에서 삭제" style="endArrow=open;endSize=12;dashed=1;html=1;rounded=0;exitX=0;exitY=1;exitDx=0;exitDy=-5;exitPerimeter=0;" parent="1" source="s5COHGNMD4PNr6RxPExq-171" target="s5COHGNMD4PNr6RxPExq-180" edge="1">
          <mxGeometry x="0.1" y="-5" width="160" relative="1" as="geometry">
            <mxPoint x="2140" y="280" as="sourcePoint" />
            <mxPoint x="2300" y="280" as="targetPoint" />
            <mxPoint as="offset" />
          </mxGeometry>
        </mxCell>
        <mxCell id="s5COHGNMD4PNr6RxPExq-183" value="삭제완료" style="endArrow=open;endSize=12;dashed=1;html=1;rounded=0;exitX=0;exitY=1;exitDx=0;exitDy=-5;exitPerimeter=0;" parent="1" edge="1">
          <mxGeometry x="-0.1" y="-10" width="160" relative="1" as="geometry">
            <mxPoint x="1905" y="250" as="sourcePoint" />
            <mxPoint x="1805" y="250" as="targetPoint" />
            <mxPoint as="offset" />
          </mxGeometry>
        </mxCell>
        <mxCell id="s5COHGNMD4PNr6RxPExq-184" value="Client" style="shape=umlLifeline;perimeter=lifelinePerimeter;whiteSpace=wrap;html=1;container=1;dropTarget=0;collapsible=0;recursiveResize=0;outlineConnect=0;portConstraint=eastwest;newEdgeStyle={&quot;curved&quot;:0,&quot;rounded&quot;:0};" parent="1" vertex="1">
          <mxGeometry x="-70" y="1110" width="100" height="320" as="geometry" />
        </mxCell>
        <mxCell id="s5COHGNMD4PNr6RxPExq-185" value="Server" style="shape=umlLifeline;perimeter=lifelinePerimeter;whiteSpace=wrap;html=1;container=1;dropTarget=0;collapsible=0;recursiveResize=0;outlineConnect=0;portConstraint=eastwest;newEdgeStyle={&quot;curved&quot;:0,&quot;rounded&quot;:0};" parent="1" vertex="1">
          <mxGeometry x="40" y="1110" width="100" height="320" as="geometry" />
        </mxCell>
        <mxCell id="s5COHGNMD4PNr6RxPExq-186" value="mySQL" style="shape=umlLifeline;perimeter=lifelinePerimeter;whiteSpace=wrap;html=1;container=1;dropTarget=0;collapsible=0;recursiveResize=0;outlineConnect=0;portConstraint=eastwest;newEdgeStyle={&quot;curved&quot;:0,&quot;rounded&quot;:0};" parent="1" vertex="1">
          <mxGeometry x="150" y="1110" width="100" height="320" as="geometry" />
        </mxCell>
        <mxCell id="s5COHGNMD4PNr6RxPExq-187" value="" style="html=1;points=[[0,0,0,0,5],[0,1,0,0,-5],[1,0,0,0,5],[1,1,0,0,-5]];perimeter=orthogonalPerimeter;outlineConnect=0;targetShapes=umlLifeline;portConstraint=eastwest;newEdgeStyle={&quot;curved&quot;:0,&quot;rounded&quot;:0};" parent="s5COHGNMD4PNr6RxPExq-186" vertex="1">
          <mxGeometry x="45" y="110" width="10" height="40" as="geometry" />
        </mxCell>
        <mxCell id="s5COHGNMD4PNr6RxPExq-190" value="&lt;span style=&quot;background-color: initial;&quot;&gt;POST : /user/set/name&lt;/span&gt;" style="shape=umlFrame;whiteSpace=wrap;html=1;pointerEvents=0;width=120;height=30;" parent="1" vertex="1">
          <mxGeometry x="-100" y="1070" width="470" height="370" as="geometry" />
        </mxCell>
        <mxCell id="s5COHGNMD4PNr6RxPExq-193" value="" style="html=1;points=[[0,0,0,0,5],[0,1,0,0,-5],[1,0,0,0,5],[1,1,0,0,-5]];perimeter=orthogonalPerimeter;outlineConnect=0;targetShapes=umlLifeline;portConstraint=eastwest;newEdgeStyle={&quot;curved&quot;:0,&quot;rounded&quot;:0};" parent="1" vertex="1">
          <mxGeometry x="-25" y="1180" width="10" height="110" as="geometry" />
        </mxCell>
        <mxCell id="s5COHGNMD4PNr6RxPExq-196" value="" style="html=1;points=[[0,0,0,0,5],[0,1,0,0,-5],[1,0,0,0,5],[1,1,0,0,-5]];perimeter=orthogonalPerimeter;outlineConnect=0;targetShapes=umlLifeline;portConstraint=eastwest;newEdgeStyle={&quot;curved&quot;:0,&quot;rounded&quot;:0};" parent="1" vertex="1">
          <mxGeometry x="85" y="1200" width="10" height="80" as="geometry" />
        </mxCell>
        <mxCell id="s5COHGNMD4PNr6RxPExq-197" value="&lt;div style=&quot;text-align: left;&quot;&gt;닉네임변경요청&lt;/div&gt;" style="endArrow=open;endSize=12;dashed=1;html=1;rounded=0;" parent="1" target="s5COHGNMD4PNr6RxPExq-196" edge="1">
          <mxGeometry x="0.0526" y="20" width="160" relative="1" as="geometry">
            <mxPoint x="-10" y="1210" as="sourcePoint" />
            <mxPoint x="-15" y="1195" as="targetPoint" />
            <Array as="points">
              <mxPoint x="40" y="1210" />
            </Array>
            <mxPoint as="offset" />
          </mxGeometry>
        </mxCell>
        <mxCell id="s5COHGNMD4PNr6RxPExq-198" value="DB 변경완료" style="endArrow=open;endSize=12;dashed=1;html=1;rounded=0;exitX=0;exitY=1;exitDx=0;exitDy=-5;exitPerimeter=0;" parent="1" source="s5COHGNMD4PNr6RxPExq-187" target="s5COHGNMD4PNr6RxPExq-196" edge="1">
          <mxGeometry x="0.1" y="-5" width="160" relative="1" as="geometry">
            <mxPoint x="320" y="1300" as="sourcePoint" />
            <mxPoint x="480" y="1300" as="targetPoint" />
            <mxPoint as="offset" />
          </mxGeometry>
        </mxCell>
        <mxCell id="s5COHGNMD4PNr6RxPExq-199" value="닉네임 변경 성공" style="endArrow=open;endSize=12;dashed=1;html=1;rounded=0;exitX=0;exitY=1;exitDx=0;exitDy=-5;exitPerimeter=0;" parent="1" edge="1">
          <mxGeometry x="-0.1" y="-10" width="160" relative="1" as="geometry">
            <mxPoint x="85" y="1270" as="sourcePoint" />
            <mxPoint x="-15" y="1270" as="targetPoint" />
            <mxPoint as="offset" />
          </mxGeometry>
        </mxCell>
        <mxCell id="s5COHGNMD4PNr6RxPExq-201" value="Client" style="shape=umlLifeline;perimeter=lifelinePerimeter;whiteSpace=wrap;html=1;container=1;dropTarget=0;collapsible=0;recursiveResize=0;outlineConnect=0;portConstraint=eastwest;newEdgeStyle={&quot;curved&quot;:0,&quot;rounded&quot;:0};" parent="1" vertex="1">
          <mxGeometry x="440" y="1110" width="100" height="320" as="geometry" />
        </mxCell>
        <mxCell id="s5COHGNMD4PNr6RxPExq-202" value="Server" style="shape=umlLifeline;perimeter=lifelinePerimeter;whiteSpace=wrap;html=1;container=1;dropTarget=0;collapsible=0;recursiveResize=0;outlineConnect=0;portConstraint=eastwest;newEdgeStyle={&quot;curved&quot;:0,&quot;rounded&quot;:0};" parent="1" vertex="1">
          <mxGeometry x="550" y="1110" width="100" height="320" as="geometry" />
        </mxCell>
        <mxCell id="s5COHGNMD4PNr6RxPExq-203" value="mySQL" style="shape=umlLifeline;perimeter=lifelinePerimeter;whiteSpace=wrap;html=1;container=1;dropTarget=0;collapsible=0;recursiveResize=0;outlineConnect=0;portConstraint=eastwest;newEdgeStyle={&quot;curved&quot;:0,&quot;rounded&quot;:0};" parent="1" vertex="1">
          <mxGeometry x="660" y="1110" width="100" height="320" as="geometry" />
        </mxCell>
        <mxCell id="s5COHGNMD4PNr6RxPExq-204" value="" style="html=1;points=[[0,0,0,0,5],[0,1,0,0,-5],[1,0,0,0,5],[1,1,0,0,-5]];perimeter=orthogonalPerimeter;outlineConnect=0;targetShapes=umlLifeline;portConstraint=eastwest;newEdgeStyle={&quot;curved&quot;:0,&quot;rounded&quot;:0};" parent="s5COHGNMD4PNr6RxPExq-203" vertex="1">
          <mxGeometry x="45" y="110" width="10" height="40" as="geometry" />
        </mxCell>
        <mxCell id="s5COHGNMD4PNr6RxPExq-205" value="변경정보전달" style="endArrow=open;endSize=12;dashed=1;html=1;rounded=0;" parent="s5COHGNMD4PNr6RxPExq-203" target="s5COHGNMD4PNr6RxPExq-204" edge="1">
          <mxGeometry x="0.0526" y="20" width="160" relative="1" as="geometry">
            <mxPoint x="-50" y="120" as="sourcePoint" />
            <mxPoint x="-55" y="105" as="targetPoint" />
            <Array as="points" />
            <mxPoint as="offset" />
          </mxGeometry>
        </mxCell>
        <mxCell id="s5COHGNMD4PNr6RxPExq-206" value="&lt;span style=&quot;background-color: initial;&quot;&gt;POST : /user/set/pw&lt;/span&gt;" style="shape=umlFrame;whiteSpace=wrap;html=1;pointerEvents=0;width=120;height=30;" parent="1" vertex="1">
          <mxGeometry x="410" y="1070" width="470" height="370" as="geometry" />
        </mxCell>
        <mxCell id="s5COHGNMD4PNr6RxPExq-207" value="" style="html=1;points=[[0,0,0,0,5],[0,1,0,0,-5],[1,0,0,0,5],[1,1,0,0,-5]];perimeter=orthogonalPerimeter;outlineConnect=0;targetShapes=umlLifeline;portConstraint=eastwest;newEdgeStyle={&quot;curved&quot;:0,&quot;rounded&quot;:0};" parent="1" vertex="1">
          <mxGeometry x="485" y="1180" width="10" height="110" as="geometry" />
        </mxCell>
        <mxCell id="s5COHGNMD4PNr6RxPExq-208" value="" style="html=1;points=[[0,0,0,0,5],[0,1,0,0,-5],[1,0,0,0,5],[1,1,0,0,-5]];perimeter=orthogonalPerimeter;outlineConnect=0;targetShapes=umlLifeline;portConstraint=eastwest;newEdgeStyle={&quot;curved&quot;:0,&quot;rounded&quot;:0};" parent="1" vertex="1">
          <mxGeometry x="595" y="1200" width="10" height="80" as="geometry" />
        </mxCell>
        <mxCell id="s5COHGNMD4PNr6RxPExq-209" value="&lt;div style=&quot;text-align: left;&quot;&gt;비밀번호변경요청&lt;/div&gt;" style="endArrow=open;endSize=12;dashed=1;html=1;rounded=0;" parent="1" target="s5COHGNMD4PNr6RxPExq-208" edge="1">
          <mxGeometry x="0.0526" y="20" width="160" relative="1" as="geometry">
            <mxPoint x="500" y="1210" as="sourcePoint" />
            <mxPoint x="495" y="1195" as="targetPoint" />
            <Array as="points">
              <mxPoint x="550" y="1210" />
            </Array>
            <mxPoint as="offset" />
          </mxGeometry>
        </mxCell>
        <mxCell id="s5COHGNMD4PNr6RxPExq-210" value="DB변경완료" style="endArrow=open;endSize=12;dashed=1;html=1;rounded=0;exitX=0;exitY=1;exitDx=0;exitDy=-5;exitPerimeter=0;" parent="1" source="s5COHGNMD4PNr6RxPExq-204" target="s5COHGNMD4PNr6RxPExq-208" edge="1">
          <mxGeometry x="0.1" y="-5" width="160" relative="1" as="geometry">
            <mxPoint x="830" y="1300" as="sourcePoint" />
            <mxPoint x="990" y="1300" as="targetPoint" />
            <mxPoint as="offset" />
          </mxGeometry>
        </mxCell>
        <mxCell id="s5COHGNMD4PNr6RxPExq-211" value="비밀번호 변경성공" style="endArrow=open;endSize=12;dashed=1;html=1;rounded=0;exitX=0;exitY=1;exitDx=0;exitDy=-5;exitPerimeter=0;" parent="1" edge="1">
          <mxGeometry x="-0.1" y="-10" width="160" relative="1" as="geometry">
            <mxPoint x="595" y="1270" as="sourcePoint" />
            <mxPoint x="495" y="1270" as="targetPoint" />
            <mxPoint as="offset" />
          </mxGeometry>
        </mxCell>
        <mxCell id="s5COHGNMD4PNr6RxPExq-212" value="Client" style="shape=umlLifeline;perimeter=lifelinePerimeter;whiteSpace=wrap;html=1;container=1;dropTarget=0;collapsible=0;recursiveResize=0;outlineConnect=0;portConstraint=eastwest;newEdgeStyle={&quot;curved&quot;:0,&quot;rounded&quot;:0};" parent="1" vertex="1">
          <mxGeometry x="940" y="1110" width="100" height="320" as="geometry" />
        </mxCell>
        <mxCell id="s5COHGNMD4PNr6RxPExq-213" value="Server" style="shape=umlLifeline;perimeter=lifelinePerimeter;whiteSpace=wrap;html=1;container=1;dropTarget=0;collapsible=0;recursiveResize=0;outlineConnect=0;portConstraint=eastwest;newEdgeStyle={&quot;curved&quot;:0,&quot;rounded&quot;:0};" parent="1" vertex="1">
          <mxGeometry x="1050" y="1110" width="100" height="320" as="geometry" />
        </mxCell>
        <mxCell id="s5COHGNMD4PNr6RxPExq-214" value="mySQL" style="shape=umlLifeline;perimeter=lifelinePerimeter;whiteSpace=wrap;html=1;container=1;dropTarget=0;collapsible=0;recursiveResize=0;outlineConnect=0;portConstraint=eastwest;newEdgeStyle={&quot;curved&quot;:0,&quot;rounded&quot;:0};" parent="1" vertex="1">
          <mxGeometry x="1160" y="1110" width="100" height="320" as="geometry" />
        </mxCell>
        <mxCell id="s5COHGNMD4PNr6RxPExq-215" value="" style="html=1;points=[[0,0,0,0,5],[0,1,0,0,-5],[1,0,0,0,5],[1,1,0,0,-5]];perimeter=orthogonalPerimeter;outlineConnect=0;targetShapes=umlLifeline;portConstraint=eastwest;newEdgeStyle={&quot;curved&quot;:0,&quot;rounded&quot;:0};" parent="s5COHGNMD4PNr6RxPExq-214" vertex="1">
          <mxGeometry x="45" y="100" width="10" height="60" as="geometry" />
        </mxCell>
        <mxCell id="s5COHGNMD4PNr6RxPExq-216" value="탈퇴회원 정보전달" style="endArrow=open;endSize=12;dashed=1;html=1;rounded=0;" parent="s5COHGNMD4PNr6RxPExq-214" target="s5COHGNMD4PNr6RxPExq-215" edge="1">
          <mxGeometry x="0.0526" y="20" width="160" relative="1" as="geometry">
            <mxPoint x="-50" y="120" as="sourcePoint" />
            <mxPoint x="-55" y="105" as="targetPoint" />
            <Array as="points" />
            <mxPoint as="offset" />
          </mxGeometry>
        </mxCell>
        <mxCell id="s5COHGNMD4PNr6RxPExq-217" value="&lt;span style=&quot;background-color: initial;&quot;&gt;POST : /user/kill&lt;/span&gt;" style="shape=umlFrame;whiteSpace=wrap;html=1;pointerEvents=0;width=120;height=30;" parent="1" vertex="1">
          <mxGeometry x="910" y="1070" width="470" height="370" as="geometry" />
        </mxCell>
        <mxCell id="s5COHGNMD4PNr6RxPExq-218" value="" style="html=1;points=[[0,0,0,0,5],[0,1,0,0,-5],[1,0,0,0,5],[1,1,0,0,-5]];perimeter=orthogonalPerimeter;outlineConnect=0;targetShapes=umlLifeline;portConstraint=eastwest;newEdgeStyle={&quot;curved&quot;:0,&quot;rounded&quot;:0};" parent="1" vertex="1">
          <mxGeometry x="985" y="1180" width="10" height="110" as="geometry" />
        </mxCell>
        <mxCell id="s5COHGNMD4PNr6RxPExq-219" value="" style="html=1;points=[[0,0,0,0,5],[0,1,0,0,-5],[1,0,0,0,5],[1,1,0,0,-5]];perimeter=orthogonalPerimeter;outlineConnect=0;targetShapes=umlLifeline;portConstraint=eastwest;newEdgeStyle={&quot;curved&quot;:0,&quot;rounded&quot;:0};" parent="1" vertex="1">
          <mxGeometry x="1095" y="1201" width="10" height="80" as="geometry" />
        </mxCell>
        <mxCell id="s5COHGNMD4PNr6RxPExq-220" value="&lt;div style=&quot;text-align: left;&quot;&gt;탈퇴요청&lt;/div&gt;" style="endArrow=open;endSize=12;dashed=1;html=1;rounded=0;" parent="1" target="s5COHGNMD4PNr6RxPExq-219" edge="1">
          <mxGeometry x="0.0526" y="20" width="160" relative="1" as="geometry">
            <mxPoint x="1000" y="1210" as="sourcePoint" />
            <mxPoint x="995" y="1195" as="targetPoint" />
            <Array as="points">
              <mxPoint x="1050" y="1210" />
            </Array>
            <mxPoint as="offset" />
          </mxGeometry>
        </mxCell>
        <mxCell id="s5COHGNMD4PNr6RxPExq-221" value="DB에서 삭제완료" style="endArrow=open;endSize=12;dashed=1;html=1;rounded=0;exitX=0;exitY=1;exitDx=0;exitDy=-5;exitPerimeter=0;" parent="1" edge="1">
          <mxGeometry x="0.1" y="-5" width="160" relative="1" as="geometry">
            <mxPoint x="1205" y="1261" as="sourcePoint" />
            <mxPoint x="1105" y="1261" as="targetPoint" />
            <mxPoint as="offset" />
          </mxGeometry>
        </mxCell>
        <mxCell id="s5COHGNMD4PNr6RxPExq-222" value="탈퇴성공" style="endArrow=open;endSize=12;dashed=1;html=1;rounded=0;exitX=0;exitY=1;exitDx=0;exitDy=-5;exitPerimeter=0;" parent="1" edge="1">
          <mxGeometry x="-0.1" y="-10" width="160" relative="1" as="geometry">
            <mxPoint x="1095" y="1270" as="sourcePoint" />
            <mxPoint x="995" y="1270" as="targetPoint" />
            <mxPoint as="offset" />
          </mxGeometry>
        </mxCell>
        <mxCell id="s5COHGNMD4PNr6RxPExq-223" value="Client" style="shape=umlLifeline;perimeter=lifelinePerimeter;whiteSpace=wrap;html=1;container=1;dropTarget=0;collapsible=0;recursiveResize=0;outlineConnect=0;portConstraint=eastwest;newEdgeStyle={&quot;curved&quot;:0,&quot;rounded&quot;:0};" parent="1" vertex="1">
          <mxGeometry x="40" y="1520" width="100" height="320" as="geometry" />
        </mxCell>
        <mxCell id="s5COHGNMD4PNr6RxPExq-228" value="nginx" style="shape=umlLifeline;perimeter=lifelinePerimeter;whiteSpace=wrap;html=1;container=1;dropTarget=0;collapsible=0;recursiveResize=0;outlineConnect=0;portConstraint=eastwest;newEdgeStyle={&quot;curved&quot;:0,&quot;rounded&quot;:0};" parent="1" vertex="1">
          <mxGeometry x="-70" y="1520" width="100" height="320" as="geometry" />
        </mxCell>
        <mxCell id="s5COHGNMD4PNr6RxPExq-229" value="&lt;span style=&quot;background-color: initial;&quot;&gt;GET : /login&lt;/span&gt;" style="shape=umlFrame;whiteSpace=wrap;html=1;pointerEvents=0;" parent="1" vertex="1">
          <mxGeometry x="-100" y="1480" width="480" height="370" as="geometry" />
        </mxCell>
        <mxCell id="s5COHGNMD4PNr6RxPExq-230" value="" style="endArrow=open;endSize=12;dashed=1;html=1;rounded=0;" parent="1" source="s5COHGNMD4PNr6RxPExq-231" target="s5COHGNMD4PNr6RxPExq-228" edge="1">
          <mxGeometry width="160" relative="1" as="geometry">
            <mxPoint x="70" y="1710" as="sourcePoint" />
            <mxPoint x="220" y="1710" as="targetPoint" />
            <Array as="points" />
          </mxGeometry>
        </mxCell>
        <mxCell id="s5COHGNMD4PNr6RxPExq-231" value="" style="html=1;points=[[0,0,0,0,5],[0,1,0,0,-5],[1,0,0,0,5],[1,1,0,0,-5]];perimeter=orthogonalPerimeter;outlineConnect=0;targetShapes=umlLifeline;portConstraint=eastwest;newEdgeStyle={&quot;curved&quot;:0,&quot;rounded&quot;:0};" parent="1" vertex="1">
          <mxGeometry x="-25" y="1570" width="10" height="30" as="geometry" />
        </mxCell>
        <mxCell id="s5COHGNMD4PNr6RxPExq-232" value="" style="html=1;points=[[0,0,0,0,5],[0,1,0,0,-5],[1,0,0,0,5],[1,1,0,0,-5]];perimeter=orthogonalPerimeter;outlineConnect=0;targetShapes=umlLifeline;portConstraint=eastwest;newEdgeStyle={&quot;curved&quot;:0,&quot;rounded&quot;:0};" parent="1" vertex="1">
          <mxGeometry x="85" y="1590" width="10" height="30" as="geometry" />
        </mxCell>
        <mxCell id="s5COHGNMD4PNr6RxPExq-233" value="GET : /user" style="endArrow=open;endSize=12;dashed=1;html=1;rounded=0;entryX=1;entryY=0;entryDx=0;entryDy=5;entryPerimeter=0;" parent="1" source="s5COHGNMD4PNr6RxPExq-223" target="s5COHGNMD4PNr6RxPExq-231" edge="1">
          <mxGeometry width="160" relative="1" as="geometry">
            <mxPoint x="60" y="1710" as="sourcePoint" />
            <mxPoint x="220" y="1710" as="targetPoint" />
          </mxGeometry>
        </mxCell>
        <mxCell id="s5COHGNMD4PNr6RxPExq-234" value="로그인 페이지 front" style="endArrow=open;endSize=12;dashed=1;html=1;rounded=0;exitX=1;exitY=1;exitDx=0;exitDy=-5;exitPerimeter=0;entryX=0;entryY=0;entryDx=0;entryDy=5;entryPerimeter=0;" parent="1" source="s5COHGNMD4PNr6RxPExq-231" target="s5COHGNMD4PNr6RxPExq-232" edge="1">
          <mxGeometry width="160" relative="1" as="geometry">
            <mxPoint x="430" y="1710" as="sourcePoint" />
            <mxPoint x="590" y="1710" as="targetPoint" />
            <Array as="points" />
          </mxGeometry>
        </mxCell>
        <mxCell id="s5COHGNMD4PNr6RxPExq-245" value="Client" style="shape=umlLifeline;perimeter=lifelinePerimeter;whiteSpace=wrap;html=1;container=1;dropTarget=0;collapsible=0;recursiveResize=0;outlineConnect=0;portConstraint=eastwest;newEdgeStyle={&quot;curved&quot;:0,&quot;rounded&quot;:0};" parent="1" vertex="1">
          <mxGeometry x="40" y="1920" width="100" height="320" as="geometry" />
        </mxCell>
        <mxCell id="s5COHGNMD4PNr6RxPExq-250" value="nginx" style="shape=umlLifeline;perimeter=lifelinePerimeter;whiteSpace=wrap;html=1;container=1;dropTarget=0;collapsible=0;recursiveResize=0;outlineConnect=0;portConstraint=eastwest;newEdgeStyle={&quot;curved&quot;:0,&quot;rounded&quot;:0};" parent="1" vertex="1">
          <mxGeometry x="-70" y="1920" width="100" height="320" as="geometry" />
        </mxCell>
        <mxCell id="s5COHGNMD4PNr6RxPExq-251" value="&lt;span style=&quot;background-color: initial;&quot;&gt;GET : /regist&lt;/span&gt;" style="shape=umlFrame;whiteSpace=wrap;html=1;pointerEvents=0;" parent="1" vertex="1">
          <mxGeometry x="-100" y="1880" width="480" height="370" as="geometry" />
        </mxCell>
        <mxCell id="s5COHGNMD4PNr6RxPExq-252" value="" style="endArrow=open;endSize=12;dashed=1;html=1;rounded=0;" parent="1" source="s5COHGNMD4PNr6RxPExq-253" target="s5COHGNMD4PNr6RxPExq-250" edge="1">
          <mxGeometry width="160" relative="1" as="geometry">
            <mxPoint x="70" y="2110" as="sourcePoint" />
            <mxPoint x="220" y="2110" as="targetPoint" />
            <Array as="points" />
          </mxGeometry>
        </mxCell>
        <mxCell id="s5COHGNMD4PNr6RxPExq-253" value="" style="html=1;points=[[0,0,0,0,5],[0,1,0,0,-5],[1,0,0,0,5],[1,1,0,0,-5]];perimeter=orthogonalPerimeter;outlineConnect=0;targetShapes=umlLifeline;portConstraint=eastwest;newEdgeStyle={&quot;curved&quot;:0,&quot;rounded&quot;:0};" parent="1" vertex="1">
          <mxGeometry x="-25" y="1970" width="10" height="30" as="geometry" />
        </mxCell>
        <mxCell id="s5COHGNMD4PNr6RxPExq-254" value="" style="html=1;points=[[0,0,0,0,5],[0,1,0,0,-5],[1,0,0,0,5],[1,1,0,0,-5]];perimeter=orthogonalPerimeter;outlineConnect=0;targetShapes=umlLifeline;portConstraint=eastwest;newEdgeStyle={&quot;curved&quot;:0,&quot;rounded&quot;:0};" parent="1" vertex="1">
          <mxGeometry x="85" y="1990" width="10" height="40" as="geometry" />
        </mxCell>
        <mxCell id="s5COHGNMD4PNr6RxPExq-255" value="GET : /user" style="endArrow=open;endSize=12;dashed=1;html=1;rounded=0;entryX=1;entryY=0;entryDx=0;entryDy=5;entryPerimeter=0;" parent="1" source="s5COHGNMD4PNr6RxPExq-245" target="s5COHGNMD4PNr6RxPExq-253" edge="1">
          <mxGeometry width="160" relative="1" as="geometry">
            <mxPoint x="60" y="2110" as="sourcePoint" />
            <mxPoint x="220" y="2110" as="targetPoint" />
          </mxGeometry>
        </mxCell>
        <mxCell id="s5COHGNMD4PNr6RxPExq-256" value="회원가입 페이지 front" style="endArrow=open;endSize=12;dashed=1;html=1;rounded=0;exitX=1;exitY=1;exitDx=0;exitDy=-5;exitPerimeter=0;entryX=0;entryY=0;entryDx=0;entryDy=5;entryPerimeter=0;" parent="1" source="s5COHGNMD4PNr6RxPExq-253" target="s5COHGNMD4PNr6RxPExq-254" edge="1">
          <mxGeometry width="160" relative="1" as="geometry">
            <mxPoint x="430" y="2110" as="sourcePoint" />
            <mxPoint x="590" y="2110" as="targetPoint" />
            <Array as="points" />
          </mxGeometry>
        </mxCell>
        <mxCell id="s5COHGNMD4PNr6RxPExq-267" value="Server" style="shape=umlLifeline;perimeter=lifelinePerimeter;whiteSpace=wrap;html=1;container=1;dropTarget=0;collapsible=0;recursiveResize=0;outlineConnect=0;portConstraint=eastwest;newEdgeStyle={&quot;curved&quot;:0,&quot;rounded&quot;:0};" parent="1" vertex="1">
          <mxGeometry x="550" y="1520" width="100" height="320" as="geometry" />
        </mxCell>
        <mxCell id="s5COHGNMD4PNr6RxPExq-268" value="Client" style="shape=umlLifeline;perimeter=lifelinePerimeter;whiteSpace=wrap;html=1;container=1;dropTarget=0;collapsible=0;recursiveResize=0;outlineConnect=0;portConstraint=eastwest;newEdgeStyle={&quot;curved&quot;:0,&quot;rounded&quot;:0};" parent="1" vertex="1">
          <mxGeometry x="440" y="1520" width="100" height="320" as="geometry" />
        </mxCell>
        <mxCell id="s5COHGNMD4PNr6RxPExq-269" value="&lt;span style=&quot;background-color: initial;&quot;&gt;POST : /login&lt;/span&gt;" style="shape=umlFrame;whiteSpace=wrap;html=1;pointerEvents=0;" parent="1" vertex="1">
          <mxGeometry x="410" y="1480" width="480" height="370" as="geometry" />
        </mxCell>
        <mxCell id="s5COHGNMD4PNr6RxPExq-270" value="" style="endArrow=open;endSize=12;dashed=1;html=1;rounded=0;" parent="1" source="s5COHGNMD4PNr6RxPExq-271" target="s5COHGNMD4PNr6RxPExq-268" edge="1">
          <mxGeometry width="160" relative="1" as="geometry">
            <mxPoint x="580" y="1710" as="sourcePoint" />
            <mxPoint x="730" y="1710" as="targetPoint" />
            <Array as="points" />
          </mxGeometry>
        </mxCell>
        <mxCell id="s5COHGNMD4PNr6RxPExq-271" value="" style="html=1;points=[[0,0,0,0,5],[0,1,0,0,-5],[1,0,0,0,5],[1,1,0,0,-5]];perimeter=orthogonalPerimeter;outlineConnect=0;targetShapes=umlLifeline;portConstraint=eastwest;newEdgeStyle={&quot;curved&quot;:0,&quot;rounded&quot;:0};" parent="1" vertex="1">
          <mxGeometry x="485" y="1570" width="10" height="140" as="geometry" />
        </mxCell>
        <mxCell id="s5COHGNMD4PNr6RxPExq-272" value="" style="html=1;points=[[0,0,0,0,5],[0,1,0,0,-5],[1,0,0,0,5],[1,1,0,0,-5]];perimeter=orthogonalPerimeter;outlineConnect=0;targetShapes=umlLifeline;portConstraint=eastwest;newEdgeStyle={&quot;curved&quot;:0,&quot;rounded&quot;:0};" parent="1" vertex="1">
          <mxGeometry x="595" y="1590" width="10" height="100" as="geometry" />
        </mxCell>
        <mxCell id="s5COHGNMD4PNr6RxPExq-274" value="이메일 비밀번호 입력" style="endArrow=open;endSize=12;dashed=1;html=1;rounded=0;entryX=0;entryY=0;entryDx=0;entryDy=5;entryPerimeter=0;" parent="1" source="s5COHGNMD4PNr6RxPExq-271" target="s5COHGNMD4PNr6RxPExq-272" edge="1">
          <mxGeometry x="-0.1" y="15" width="160" relative="1" as="geometry">
            <mxPoint x="940" y="1710" as="sourcePoint" />
            <mxPoint x="1100" y="1710" as="targetPoint" />
            <Array as="points" />
            <mxPoint as="offset" />
          </mxGeometry>
        </mxCell>
        <mxCell id="s5COHGNMD4PNr6RxPExq-275" value="Server" style="shape=umlLifeline;perimeter=lifelinePerimeter;whiteSpace=wrap;html=1;container=1;dropTarget=0;collapsible=0;recursiveResize=0;outlineConnect=0;portConstraint=eastwest;newEdgeStyle={&quot;curved&quot;:0,&quot;rounded&quot;:0};" parent="1" vertex="1">
          <mxGeometry x="550" y="1920" width="100" height="320" as="geometry" />
        </mxCell>
        <mxCell id="s5COHGNMD4PNr6RxPExq-276" value="Client" style="shape=umlLifeline;perimeter=lifelinePerimeter;whiteSpace=wrap;html=1;container=1;dropTarget=0;collapsible=0;recursiveResize=0;outlineConnect=0;portConstraint=eastwest;newEdgeStyle={&quot;curved&quot;:0,&quot;rounded&quot;:0};" parent="1" vertex="1">
          <mxGeometry x="440" y="1920" width="100" height="320" as="geometry" />
        </mxCell>
        <mxCell id="s5COHGNMD4PNr6RxPExq-277" value="&lt;span style=&quot;background-color: initial;&quot;&gt;POST : /regist&lt;/span&gt;" style="shape=umlFrame;whiteSpace=wrap;html=1;pointerEvents=0;" parent="1" vertex="1">
          <mxGeometry x="410" y="1880" width="480" height="370" as="geometry" />
        </mxCell>
        <mxCell id="s5COHGNMD4PNr6RxPExq-278" value="" style="endArrow=open;endSize=12;dashed=1;html=1;rounded=0;" parent="1" source="s5COHGNMD4PNr6RxPExq-279" target="s5COHGNMD4PNr6RxPExq-276" edge="1">
          <mxGeometry width="160" relative="1" as="geometry">
            <mxPoint x="580" y="2110" as="sourcePoint" />
            <mxPoint x="730" y="2110" as="targetPoint" />
            <Array as="points" />
          </mxGeometry>
        </mxCell>
        <mxCell id="s5COHGNMD4PNr6RxPExq-279" value="" style="html=1;points=[[0,0,0,0,5],[0,1,0,0,-5],[1,0,0,0,5],[1,1,0,0,-5]];perimeter=orthogonalPerimeter;outlineConnect=0;targetShapes=umlLifeline;portConstraint=eastwest;newEdgeStyle={&quot;curved&quot;:0,&quot;rounded&quot;:0};" parent="1" vertex="1">
          <mxGeometry x="485" y="1970" width="10" height="170" as="geometry" />
        </mxCell>
        <mxCell id="s5COHGNMD4PNr6RxPExq-280" value="" style="html=1;points=[[0,0,0,0,5],[0,1,0,0,-5],[1,0,0,0,5],[1,1,0,0,-5]];perimeter=orthogonalPerimeter;outlineConnect=0;targetShapes=umlLifeline;portConstraint=eastwest;newEdgeStyle={&quot;curved&quot;:0,&quot;rounded&quot;:0};" parent="1" vertex="1">
          <mxGeometry x="595" y="1990" width="10" height="120" as="geometry" />
        </mxCell>
        <mxCell id="s5COHGNMD4PNr6RxPExq-282" value="회원정보 작성" style="endArrow=open;endSize=12;dashed=1;html=1;rounded=0;entryX=0;entryY=0;entryDx=0;entryDy=5;entryPerimeter=0;" parent="1" source="s5COHGNMD4PNr6RxPExq-279" target="s5COHGNMD4PNr6RxPExq-280" edge="1">
          <mxGeometry x="0.3" y="15" width="160" relative="1" as="geometry">
            <mxPoint x="940" y="2110" as="sourcePoint" />
            <mxPoint x="1100" y="2110" as="targetPoint" />
            <Array as="points" />
            <mxPoint as="offset" />
          </mxGeometry>
        </mxCell>
        <mxCell id="s5COHGNMD4PNr6RxPExq-283" value="mySQL" style="shape=umlLifeline;perimeter=lifelinePerimeter;whiteSpace=wrap;html=1;container=1;dropTarget=0;collapsible=0;recursiveResize=0;outlineConnect=0;portConstraint=eastwest;newEdgeStyle={&quot;curved&quot;:0,&quot;rounded&quot;:0};" parent="1" vertex="1">
          <mxGeometry x="660" y="1920" width="100" height="320" as="geometry" />
        </mxCell>
        <mxCell id="s5COHGNMD4PNr6RxPExq-287" value="" style="html=1;points=[[0,0,0,0,5],[0,1,0,0,-5],[1,0,0,0,5],[1,1,0,0,-5]];perimeter=orthogonalPerimeter;outlineConnect=0;targetShapes=umlLifeline;portConstraint=eastwest;newEdgeStyle={&quot;curved&quot;:0,&quot;rounded&quot;:0};" parent="s5COHGNMD4PNr6RxPExq-283" vertex="1">
          <mxGeometry x="45" y="100" width="10" height="40" as="geometry" />
        </mxCell>
        <mxCell id="s5COHGNMD4PNr6RxPExq-288" value="회원정보 DB에 저장" style="endArrow=open;endSize=12;dashed=1;html=1;rounded=0;" parent="s5COHGNMD4PNr6RxPExq-283" edge="1">
          <mxGeometry x="0.0526" y="20" width="160" relative="1" as="geometry">
            <mxPoint x="-50" y="110" as="sourcePoint" />
            <mxPoint x="45" y="110" as="targetPoint" />
            <Array as="points" />
            <mxPoint as="offset" />
          </mxGeometry>
        </mxCell>
        <mxCell id="s5COHGNMD4PNr6RxPExq-284" value="mySQL" style="shape=umlLifeline;perimeter=lifelinePerimeter;whiteSpace=wrap;html=1;container=1;dropTarget=0;collapsible=0;recursiveResize=0;outlineConnect=0;portConstraint=eastwest;newEdgeStyle={&quot;curved&quot;:0,&quot;rounded&quot;:0};" parent="1" vertex="1">
          <mxGeometry x="660" y="1520" width="100" height="320" as="geometry" />
        </mxCell>
        <mxCell id="s5COHGNMD4PNr6RxPExq-285" value="" style="html=1;points=[[0,0,0,0,5],[0,1,0,0,-5],[1,0,0,0,5],[1,1,0,0,-5]];perimeter=orthogonalPerimeter;outlineConnect=0;targetShapes=umlLifeline;portConstraint=eastwest;newEdgeStyle={&quot;curved&quot;:0,&quot;rounded&quot;:0};" parent="s5COHGNMD4PNr6RxPExq-284" vertex="1">
          <mxGeometry x="45" y="90" width="10" height="40" as="geometry" />
        </mxCell>
        <mxCell id="s5COHGNMD4PNr6RxPExq-286" value="변경 정보전달" style="endArrow=open;endSize=12;dashed=1;html=1;rounded=0;" parent="1" edge="1">
          <mxGeometry x="0.0526" y="20" width="160" relative="1" as="geometry">
            <mxPoint x="99" y="1234" as="sourcePoint" />
            <mxPoint x="194" y="1234" as="targetPoint" />
            <Array as="points" />
            <mxPoint as="offset" />
          </mxGeometry>
        </mxCell>
        <mxCell id="s5COHGNMD4PNr6RxPExq-188" value="DB에서 정보조회" style="endArrow=open;endSize=12;dashed=1;html=1;rounded=0;" parent="1" edge="1">
          <mxGeometry x="0.0526" y="20" width="160" relative="1" as="geometry">
            <mxPoint x="610" y="1620" as="sourcePoint" />
            <mxPoint x="705" y="1620" as="targetPoint" />
            <Array as="points" />
            <mxPoint as="offset" />
          </mxGeometry>
        </mxCell>
        <mxCell id="s5COHGNMD4PNr6RxPExq-289" value="회원 확인" style="endArrow=open;endSize=12;dashed=1;html=1;rounded=0;" parent="1" edge="1">
          <mxGeometry width="160" relative="1" as="geometry">
            <mxPoint x="702.5" y="1650" as="sourcePoint" />
            <mxPoint x="610" y="1650" as="targetPoint" />
          </mxGeometry>
        </mxCell>
        <mxCell id="s5COHGNMD4PNr6RxPExq-291" value="저장한 회원정보 전달" style="endArrow=open;endSize=12;dashed=1;html=1;rounded=0;entryX=1;entryY=0;entryDx=0;entryDy=5;entryPerimeter=0;" parent="1" edge="1">
          <mxGeometry width="160" relative="1" as="geometry">
            <mxPoint x="710" y="2060" as="sourcePoint" />
            <mxPoint x="605" y="2060" as="targetPoint" />
          </mxGeometry>
        </mxCell>
        <mxCell id="s5COHGNMD4PNr6RxPExq-293" value="가입완료" style="endArrow=open;endSize=12;dashed=1;html=1;rounded=0;" parent="1" edge="1">
          <mxGeometry x="-0.2973" y="31" width="160" relative="1" as="geometry">
            <mxPoint x="587.5" y="2110" as="sourcePoint" />
            <mxPoint x="495" y="2110" as="targetPoint" />
            <mxPoint as="offset" />
          </mxGeometry>
        </mxCell>
        <mxCell id="s5COHGNMD4PNr6RxPExq-294" value="로그인 성공" style="endArrow=open;endSize=12;dashed=1;html=1;rounded=0;" parent="1" edge="1">
          <mxGeometry x="-0.2973" y="31" width="160" relative="1" as="geometry">
            <mxPoint x="587.5" y="1690" as="sourcePoint" />
            <mxPoint x="495" y="1690" as="targetPoint" />
            <mxPoint as="offset" />
          </mxGeometry>
        </mxCell>
        <mxCell id="s5COHGNMD4PNr6RxPExq-295" value="Server" style="shape=umlLifeline;perimeter=lifelinePerimeter;whiteSpace=wrap;html=1;container=1;dropTarget=0;collapsible=0;recursiveResize=0;outlineConnect=0;portConstraint=eastwest;newEdgeStyle={&quot;curved&quot;:0,&quot;rounded&quot;:0};" parent="1" vertex="1">
          <mxGeometry x="1060" y="1520" width="100" height="320" as="geometry" />
        </mxCell>
        <mxCell id="s5COHGNMD4PNr6RxPExq-296" value="Client" style="shape=umlLifeline;perimeter=lifelinePerimeter;whiteSpace=wrap;html=1;container=1;dropTarget=0;collapsible=0;recursiveResize=0;outlineConnect=0;portConstraint=eastwest;newEdgeStyle={&quot;curved&quot;:0,&quot;rounded&quot;:0};" parent="1" vertex="1">
          <mxGeometry x="950" y="1520" width="100" height="320" as="geometry" />
        </mxCell>
        <mxCell id="s5COHGNMD4PNr6RxPExq-297" value="&lt;span style=&quot;background-color: initial;&quot;&gt;POST : /logOut&lt;/span&gt;" style="shape=umlFrame;whiteSpace=wrap;html=1;pointerEvents=0;" parent="1" vertex="1">
          <mxGeometry x="920" y="1480" width="480" height="370" as="geometry" />
        </mxCell>
        <mxCell id="s5COHGNMD4PNr6RxPExq-298" value="" style="endArrow=open;endSize=12;dashed=1;html=1;rounded=0;" parent="1" source="s5COHGNMD4PNr6RxPExq-299" target="s5COHGNMD4PNr6RxPExq-296" edge="1">
          <mxGeometry width="160" relative="1" as="geometry">
            <mxPoint x="1090" y="1710" as="sourcePoint" />
            <mxPoint x="1240" y="1710" as="targetPoint" />
            <Array as="points" />
          </mxGeometry>
        </mxCell>
        <mxCell id="s5COHGNMD4PNr6RxPExq-299" value="" style="html=1;points=[[0,0,0,0,5],[0,1,0,0,-5],[1,0,0,0,5],[1,1,0,0,-5]];perimeter=orthogonalPerimeter;outlineConnect=0;targetShapes=umlLifeline;portConstraint=eastwest;newEdgeStyle={&quot;curved&quot;:0,&quot;rounded&quot;:0};" parent="1" vertex="1">
          <mxGeometry x="995" y="1570" width="10" height="140" as="geometry" />
        </mxCell>
        <mxCell id="s5COHGNMD4PNr6RxPExq-300" value="" style="html=1;points=[[0,0,0,0,5],[0,1,0,0,-5],[1,0,0,0,5],[1,1,0,0,-5]];perimeter=orthogonalPerimeter;outlineConnect=0;targetShapes=umlLifeline;portConstraint=eastwest;newEdgeStyle={&quot;curved&quot;:0,&quot;rounded&quot;:0};" parent="1" vertex="1">
          <mxGeometry x="1105" y="1590" width="10" height="100" as="geometry" />
        </mxCell>
        <mxCell id="s5COHGNMD4PNr6RxPExq-301" value="로그아웃요청" style="endArrow=open;endSize=12;dashed=1;html=1;rounded=0;entryX=0;entryY=0;entryDx=0;entryDy=5;entryPerimeter=0;" parent="1" source="s5COHGNMD4PNr6RxPExq-299" target="s5COHGNMD4PNr6RxPExq-300" edge="1">
          <mxGeometry x="-0.1" y="15" width="160" relative="1" as="geometry">
            <mxPoint x="1450" y="1710" as="sourcePoint" />
            <mxPoint x="1610" y="1710" as="targetPoint" />
            <Array as="points" />
            <mxPoint as="offset" />
          </mxGeometry>
        </mxCell>
        <mxCell id="s5COHGNMD4PNr6RxPExq-306" value="로그아웃 완료" style="endArrow=open;endSize=12;dashed=1;html=1;rounded=0;" parent="1" edge="1">
          <mxGeometry x="-0.2973" y="31" width="160" relative="1" as="geometry">
            <mxPoint x="1097.5" y="1690" as="sourcePoint" />
            <mxPoint x="1005" y="1690" as="targetPoint" />
            <mxPoint as="offset" />
          </mxGeometry>
        </mxCell>
        <mxCell id="s5COHGNMD4PNr6RxPExq-311" value="Client" style="shape=umlLifeline;perimeter=lifelinePerimeter;whiteSpace=wrap;html=1;container=1;dropTarget=0;collapsible=0;recursiveResize=0;outlineConnect=0;portConstraint=eastwest;newEdgeStyle={&quot;curved&quot;:0,&quot;rounded&quot;:0};" parent="1" vertex="1">
          <mxGeometry x="50" y="2315" width="100" height="320" as="geometry" />
        </mxCell>
        <mxCell id="s5COHGNMD4PNr6RxPExq-312" value="nginx" style="shape=umlLifeline;perimeter=lifelinePerimeter;whiteSpace=wrap;html=1;container=1;dropTarget=0;collapsible=0;recursiveResize=0;outlineConnect=0;portConstraint=eastwest;newEdgeStyle={&quot;curved&quot;:0,&quot;rounded&quot;:0};" parent="1" vertex="1">
          <mxGeometry x="-70" y="2315" width="100" height="320" as="geometry" />
        </mxCell>
        <mxCell id="s5COHGNMD4PNr6RxPExq-313" value="&lt;span style=&quot;background-color: initial;&quot;&gt;GET :&lt;/span&gt;&lt;div&gt;&lt;span style=&quot;background-color: initial;&quot;&gt;/room/?roomId={roomId}&lt;/span&gt;&lt;/div&gt;" style="shape=umlFrame;whiteSpace=wrap;html=1;pointerEvents=0;width=170;height=35;" parent="1" vertex="1">
          <mxGeometry x="-100" y="2275" width="540" height="370" as="geometry" />
        </mxCell>
        <mxCell id="s5COHGNMD4PNr6RxPExq-314" value="" style="endArrow=open;endSize=12;dashed=1;html=1;rounded=0;" parent="1" source="s5COHGNMD4PNr6RxPExq-315" target="s5COHGNMD4PNr6RxPExq-312" edge="1">
          <mxGeometry width="160" relative="1" as="geometry">
            <mxPoint x="70" y="2505" as="sourcePoint" />
            <mxPoint x="220" y="2505" as="targetPoint" />
            <Array as="points" />
          </mxGeometry>
        </mxCell>
        <mxCell id="s5COHGNMD4PNr6RxPExq-315" value="" style="html=1;points=[[0,0,0,0,5],[0,1,0,0,-5],[1,0,0,0,5],[1,1,0,0,-5]];perimeter=orthogonalPerimeter;outlineConnect=0;targetShapes=umlLifeline;portConstraint=eastwest;newEdgeStyle={&quot;curved&quot;:0,&quot;rounded&quot;:0};" parent="1" vertex="1">
          <mxGeometry x="-25" y="2380" width="10" height="30" as="geometry" />
        </mxCell>
        <mxCell id="s5COHGNMD4PNr6RxPExq-316" value="" style="html=1;points=[[0,0,0,0,5],[0,1,0,0,-5],[1,0,0,0,5],[1,1,0,0,-5]];perimeter=orthogonalPerimeter;outlineConnect=0;targetShapes=umlLifeline;portConstraint=eastwest;newEdgeStyle={&quot;curved&quot;:0,&quot;rounded&quot;:0};" parent="1" vertex="1">
          <mxGeometry x="95" y="2400" width="10" height="110" as="geometry" />
        </mxCell>
        <mxCell id="s5COHGNMD4PNr6RxPExq-317" value="GET : /room" style="endArrow=open;endSize=12;dashed=1;html=1;rounded=0;entryX=1;entryY=0;entryDx=0;entryDy=5;entryPerimeter=0;" parent="1" source="s5COHGNMD4PNr6RxPExq-311" target="s5COHGNMD4PNr6RxPExq-315" edge="1">
          <mxGeometry x="-0.0526" y="-15" width="160" relative="1" as="geometry">
            <mxPoint x="60" y="2505" as="sourcePoint" />
            <mxPoint x="220" y="2505" as="targetPoint" />
            <mxPoint x="1" as="offset" />
          </mxGeometry>
        </mxCell>
        <mxCell id="s5COHGNMD4PNr6RxPExq-318" value="room 페이지 front" style="endArrow=open;endSize=12;dashed=1;html=1;rounded=0;exitX=1;exitY=1;exitDx=0;exitDy=-5;exitPerimeter=0;entryX=0;entryY=0;entryDx=0;entryDy=5;entryPerimeter=0;" parent="1" source="s5COHGNMD4PNr6RxPExq-315" target="s5COHGNMD4PNr6RxPExq-316" edge="1">
          <mxGeometry x="0.1" y="-15" width="160" relative="1" as="geometry">
            <mxPoint x="430" y="2505" as="sourcePoint" />
            <mxPoint x="590" y="2505" as="targetPoint" />
            <Array as="points" />
            <mxPoint as="offset" />
          </mxGeometry>
        </mxCell>
        <mxCell id="s5COHGNMD4PNr6RxPExq-320" value="MongoDB" style="shape=umlLifeline;perimeter=lifelinePerimeter;whiteSpace=wrap;html=1;container=1;dropTarget=0;collapsible=0;recursiveResize=0;outlineConnect=0;portConstraint=eastwest;newEdgeStyle={&quot;curved&quot;:0,&quot;rounded&quot;:0};" parent="1" vertex="1">
          <mxGeometry x="290" y="2315" width="100" height="320" as="geometry" />
        </mxCell>
        <mxCell id="s5COHGNMD4PNr6RxPExq-328" value="" style="html=1;points=[[0,0,0,0,5],[0,1,0,0,-5],[1,0,0,0,5],[1,1,0,0,-5]];perimeter=orthogonalPerimeter;outlineConnect=0;targetShapes=umlLifeline;portConstraint=eastwest;newEdgeStyle={&quot;curved&quot;:0,&quot;rounded&quot;:0};" parent="s5COHGNMD4PNr6RxPExq-320" vertex="1">
          <mxGeometry x="45" y="120" width="10" height="45" as="geometry" />
        </mxCell>
        <mxCell id="s5COHGNMD4PNr6RxPExq-323" value="Server" style="shape=umlLifeline;perimeter=lifelinePerimeter;whiteSpace=wrap;html=1;container=1;dropTarget=0;collapsible=0;recursiveResize=0;outlineConnect=0;portConstraint=eastwest;newEdgeStyle={&quot;curved&quot;:0,&quot;rounded&quot;:0};" parent="1" vertex="1">
          <mxGeometry x="170" y="2315" width="100" height="320" as="geometry" />
        </mxCell>
        <mxCell id="s5COHGNMD4PNr6RxPExq-326" value="" style="html=1;points=[[0,0,0,0,5],[0,1,0,0,-5],[1,0,0,0,5],[1,1,0,0,-5]];perimeter=orthogonalPerimeter;outlineConnect=0;targetShapes=umlLifeline;portConstraint=eastwest;newEdgeStyle={&quot;curved&quot;:0,&quot;rounded&quot;:0};" parent="s5COHGNMD4PNr6RxPExq-323" vertex="1">
          <mxGeometry x="45" y="105" width="10" height="75" as="geometry" />
        </mxCell>
        <mxCell id="s5COHGNMD4PNr6RxPExq-327" value="채팅방 정보조회" style="endArrow=open;endSize=12;dashed=1;html=1;rounded=0;entryX=0;entryY=0;entryDx=0;entryDy=5;entryPerimeter=0;" parent="1" target="s5COHGNMD4PNr6RxPExq-328" edge="1">
          <mxGeometry x="0.3333" y="20" width="160" relative="1" as="geometry">
            <mxPoint x="230" y="2440" as="sourcePoint" />
            <mxPoint x="329.5" y="2440" as="targetPoint" />
            <Array as="points" />
            <mxPoint as="offset" />
          </mxGeometry>
        </mxCell>
        <mxCell id="s5COHGNMD4PNr6RxPExq-329" value="채팅방 입장요청" style="endArrow=open;endSize=12;dashed=1;html=1;rounded=0;" parent="1" edge="1">
          <mxGeometry x="0.1872" y="20" width="160" relative="1" as="geometry">
            <mxPoint x="105" y="2430" as="sourcePoint" />
            <mxPoint x="214.5" y="2430" as="targetPoint" />
            <Array as="points" />
            <mxPoint as="offset" />
          </mxGeometry>
        </mxCell>
        <mxCell id="s5COHGNMD4PNr6RxPExq-330" value="채팅방 정보 출력" style="endArrow=open;endSize=12;dashed=1;html=1;rounded=0;" parent="1" target="s5COHGNMD4PNr6RxPExq-326" edge="1">
          <mxGeometry x="-0.0526" y="-15" width="160" relative="1" as="geometry">
            <mxPoint x="330" y="2475" as="sourcePoint" />
            <mxPoint x="230" y="2475" as="targetPoint" />
            <mxPoint x="1" as="offset" />
          </mxGeometry>
        </mxCell>
        <mxCell id="s5COHGNMD4PNr6RxPExq-331" value="채팅방 입장성공" style="endArrow=open;endSize=12;dashed=1;html=1;rounded=0;" parent="1" edge="1">
          <mxGeometry x="-0.0526" y="-15" width="160" relative="1" as="geometry">
            <mxPoint x="210" y="2480" as="sourcePoint" />
            <mxPoint x="105" y="2480" as="targetPoint" />
            <mxPoint x="1" as="offset" />
          </mxGeometry>
        </mxCell>
        <mxCell id="s5COHGNMD4PNr6RxPExq-332" value="Client" style="shape=umlLifeline;perimeter=lifelinePerimeter;whiteSpace=wrap;html=1;container=1;dropTarget=0;collapsible=0;recursiveResize=0;outlineConnect=0;portConstraint=eastwest;newEdgeStyle={&quot;curved&quot;:0,&quot;rounded&quot;:0};" parent="1" vertex="1">
          <mxGeometry x="625" y="2315" width="100" height="605" as="geometry" />
        </mxCell>
        <mxCell id="s5COHGNMD4PNr6RxPExq-333" value="nginx" style="shape=umlLifeline;perimeter=lifelinePerimeter;whiteSpace=wrap;html=1;container=1;dropTarget=0;collapsible=0;recursiveResize=0;outlineConnect=0;portConstraint=eastwest;newEdgeStyle={&quot;curved&quot;:0,&quot;rounded&quot;:0};" parent="1" vertex="1">
          <mxGeometry x="505" y="2315" width="100" height="605" as="geometry" />
        </mxCell>
        <mxCell id="s5COHGNMD4PNr6RxPExq-334" value="&lt;span style=&quot;background-color: initial;&quot;&gt;GET :&lt;/span&gt;&lt;div&gt;&lt;span style=&quot;background-color: initial;&quot;&gt;/chat/?chatId={chatId}&lt;/span&gt;&lt;/div&gt;" style="shape=umlFrame;whiteSpace=wrap;html=1;pointerEvents=0;width=170;height=35;" parent="1" vertex="1">
          <mxGeometry x="475" y="2275" width="540" height="665" as="geometry" />
        </mxCell>
        <mxCell id="s5COHGNMD4PNr6RxPExq-335" value="" style="endArrow=open;endSize=12;dashed=1;html=1;rounded=0;" parent="1" source="s5COHGNMD4PNr6RxPExq-336" target="s5COHGNMD4PNr6RxPExq-333" edge="1">
          <mxGeometry width="160" relative="1" as="geometry">
            <mxPoint x="645" y="2505" as="sourcePoint" />
            <mxPoint x="795" y="2505" as="targetPoint" />
            <Array as="points" />
          </mxGeometry>
        </mxCell>
        <mxCell id="s5COHGNMD4PNr6RxPExq-336" value="" style="html=1;points=[[0,0,0,0,5],[0,1,0,0,-5],[1,0,0,0,5],[1,1,0,0,-5]];perimeter=orthogonalPerimeter;outlineConnect=0;targetShapes=umlLifeline;portConstraint=eastwest;newEdgeStyle={&quot;curved&quot;:0,&quot;rounded&quot;:0};" parent="1" vertex="1">
          <mxGeometry x="550" y="2380" width="10" height="30" as="geometry" />
        </mxCell>
        <mxCell id="s5COHGNMD4PNr6RxPExq-337" value="" style="html=1;points=[[0,0,0,0,5],[0,1,0,0,-5],[1,0,0,0,5],[1,1,0,0,-5]];perimeter=orthogonalPerimeter;outlineConnect=0;targetShapes=umlLifeline;portConstraint=eastwest;newEdgeStyle={&quot;curved&quot;:0,&quot;rounded&quot;:0};" parent="1" vertex="1">
          <mxGeometry x="670" y="2400" width="10" height="490" as="geometry" />
        </mxCell>
        <mxCell id="s5COHGNMD4PNr6RxPExq-338" value="GET : /chat" style="endArrow=open;endSize=12;dashed=1;html=1;rounded=0;entryX=1;entryY=0;entryDx=0;entryDy=5;entryPerimeter=0;" parent="1" source="s5COHGNMD4PNr6RxPExq-332" target="s5COHGNMD4PNr6RxPExq-336" edge="1">
          <mxGeometry x="-0.0526" y="-15" width="160" relative="1" as="geometry">
            <mxPoint x="635" y="2505" as="sourcePoint" />
            <mxPoint x="795" y="2505" as="targetPoint" />
            <mxPoint x="1" as="offset" />
          </mxGeometry>
        </mxCell>
        <mxCell id="s5COHGNMD4PNr6RxPExq-339" value="chat 페이지 front" style="endArrow=open;endSize=12;dashed=1;html=1;rounded=0;exitX=1;exitY=1;exitDx=0;exitDy=-5;exitPerimeter=0;entryX=0;entryY=0;entryDx=0;entryDy=5;entryPerimeter=0;" parent="1" source="s5COHGNMD4PNr6RxPExq-336" target="s5COHGNMD4PNr6RxPExq-337" edge="1">
          <mxGeometry x="0.1" y="-15" width="160" relative="1" as="geometry">
            <mxPoint x="1005" y="2505" as="sourcePoint" />
            <mxPoint x="1165" y="2505" as="targetPoint" />
            <Array as="points" />
            <mxPoint as="offset" />
          </mxGeometry>
        </mxCell>
        <mxCell id="s5COHGNMD4PNr6RxPExq-340" value="MongoDB" style="shape=umlLifeline;perimeter=lifelinePerimeter;whiteSpace=wrap;html=1;container=1;dropTarget=0;collapsible=0;recursiveResize=0;outlineConnect=0;portConstraint=eastwest;newEdgeStyle={&quot;curved&quot;:0,&quot;rounded&quot;:0};" parent="1" vertex="1">
          <mxGeometry x="865" y="2315" width="100" height="605" as="geometry" />
        </mxCell>
        <mxCell id="s5COHGNMD4PNr6RxPExq-341" value="" style="html=1;points=[[0,0,0,0,5],[0,1,0,0,-5],[1,0,0,0,5],[1,1,0,0,-5]];perimeter=orthogonalPerimeter;outlineConnect=0;targetShapes=umlLifeline;portConstraint=eastwest;newEdgeStyle={&quot;curved&quot;:0,&quot;rounded&quot;:0};" parent="s5COHGNMD4PNr6RxPExq-340" vertex="1">
          <mxGeometry x="45" y="120" width="10" height="45" as="geometry" />
        </mxCell>
        <mxCell id="s5COHGNMD4PNr6RxPExq-352" value="" style="html=1;points=[[0,0,0,0,5],[0,1,0,0,-5],[1,0,0,0,5],[1,1,0,0,-5]];perimeter=orthogonalPerimeter;outlineConnect=0;targetShapes=umlLifeline;portConstraint=eastwest;newEdgeStyle={&quot;curved&quot;:0,&quot;rounded&quot;:0};" parent="s5COHGNMD4PNr6RxPExq-340" vertex="1">
          <mxGeometry x="45" y="225" width="10" height="45" as="geometry" />
        </mxCell>
        <mxCell id="s5COHGNMD4PNr6RxPExq-357" value="" style="html=1;points=[[0,0,0,0,5],[0,1,0,0,-5],[1,0,0,0,5],[1,1,0,0,-5]];perimeter=orthogonalPerimeter;outlineConnect=0;targetShapes=umlLifeline;portConstraint=eastwest;newEdgeStyle={&quot;curved&quot;:0,&quot;rounded&quot;:0};" parent="s5COHGNMD4PNr6RxPExq-340" vertex="1">
          <mxGeometry x="45" y="315" width="10" height="45" as="geometry" />
        </mxCell>
        <mxCell id="s5COHGNMD4PNr6RxPExq-364" value="" style="html=1;points=[[0,0,0,0,5],[0,1,0,0,-5],[1,0,0,0,5],[1,1,0,0,-5]];perimeter=orthogonalPerimeter;outlineConnect=0;targetShapes=umlLifeline;portConstraint=eastwest;newEdgeStyle={&quot;curved&quot;:0,&quot;rounded&quot;:0};" parent="s5COHGNMD4PNr6RxPExq-340" vertex="1">
          <mxGeometry x="45" y="475" width="10" height="45" as="geometry" />
        </mxCell>
        <mxCell id="s5COHGNMD4PNr6RxPExq-365" value="db.recomments.findAll({chatId:chatId})" style="endArrow=open;endSize=12;dashed=1;html=1;rounded=0;" parent="s5COHGNMD4PNr6RxPExq-340" edge="1">
          <mxGeometry x="0.6347" y="20" width="160" relative="1" as="geometry">
            <mxPoint x="-64.5" y="475" as="sourcePoint" />
            <mxPoint x="45" y="475" as="targetPoint" />
            <Array as="points" />
            <mxPoint x="1" as="offset" />
          </mxGeometry>
        </mxCell>
        <mxCell id="s5COHGNMD4PNr6RxPExq-342" value="Server" style="shape=umlLifeline;perimeter=lifelinePerimeter;whiteSpace=wrap;html=1;container=1;dropTarget=0;collapsible=0;recursiveResize=0;outlineConnect=0;portConstraint=eastwest;newEdgeStyle={&quot;curved&quot;:0,&quot;rounded&quot;:0};" parent="1" vertex="1">
          <mxGeometry x="745" y="2315" width="100" height="620" as="geometry" />
        </mxCell>
        <mxCell id="s5COHGNMD4PNr6RxPExq-343" value="" style="html=1;points=[[0,0,0,0,5],[0,1,0,0,-5],[1,0,0,0,5],[1,1,0,0,-5]];perimeter=orthogonalPerimeter;outlineConnect=0;targetShapes=umlLifeline;portConstraint=eastwest;newEdgeStyle={&quot;curved&quot;:0,&quot;rounded&quot;:0};" parent="s5COHGNMD4PNr6RxPExq-342" vertex="1">
          <mxGeometry x="45" y="105" width="10" height="75" as="geometry" />
        </mxCell>
        <mxCell id="s5COHGNMD4PNr6RxPExq-351" value="" style="html=1;points=[[0,0,0,0,5],[0,1,0,0,-5],[1,0,0,0,5],[1,1,0,0,-5]];perimeter=orthogonalPerimeter;outlineConnect=0;targetShapes=umlLifeline;portConstraint=eastwest;newEdgeStyle={&quot;curved&quot;:0,&quot;rounded&quot;:0};" parent="s5COHGNMD4PNr6RxPExq-342" vertex="1">
          <mxGeometry x="45" y="215" width="10" height="155" as="geometry" />
        </mxCell>
        <mxCell id="s5COHGNMD4PNr6RxPExq-363" value="" style="html=1;points=[[0,0,0,0,5],[0,1,0,0,-5],[1,0,0,0,5],[1,1,0,0,-5]];perimeter=orthogonalPerimeter;outlineConnect=0;targetShapes=umlLifeline;portConstraint=eastwest;newEdgeStyle={&quot;curved&quot;:0,&quot;rounded&quot;:0};" parent="s5COHGNMD4PNr6RxPExq-342" vertex="1">
          <mxGeometry x="45" y="465" width="10" height="75" as="geometry" />
        </mxCell>
        <mxCell id="s5COHGNMD4PNr6RxPExq-344" value="db.chats.find({chatId : chatId},{chatId:1})" style="endArrow=open;endSize=12;dashed=1;html=1;rounded=0;entryX=0;entryY=0;entryDx=0;entryDy=5;entryPerimeter=0;" parent="1" target="s5COHGNMD4PNr6RxPExq-341" edge="1">
          <mxGeometry x="1" y="20" width="160" relative="1" as="geometry">
            <mxPoint x="805" y="2440" as="sourcePoint" />
            <mxPoint x="904.5" y="2440" as="targetPoint" />
            <Array as="points" />
            <mxPoint as="offset" />
          </mxGeometry>
        </mxCell>
        <mxCell id="s5COHGNMD4PNr6RxPExq-345" value="query : {chatId : value}" style="endArrow=open;endSize=12;dashed=1;html=1;rounded=0;" parent="1" edge="1">
          <mxGeometry x="0.1872" y="20" width="160" relative="1" as="geometry">
            <mxPoint x="680" y="2430" as="sourcePoint" />
            <mxPoint x="789.5" y="2430" as="targetPoint" />
            <Array as="points" />
            <mxPoint as="offset" />
          </mxGeometry>
        </mxCell>
        <mxCell id="s5COHGNMD4PNr6RxPExq-346" value="[{chatId}]" style="endArrow=open;endSize=12;dashed=1;html=1;rounded=0;" parent="1" target="s5COHGNMD4PNr6RxPExq-343" edge="1">
          <mxGeometry x="-0.0526" y="-15" width="160" relative="1" as="geometry">
            <mxPoint x="905" y="2475" as="sourcePoint" />
            <mxPoint x="805" y="2475" as="targetPoint" />
            <mxPoint x="1" as="offset" />
          </mxGeometry>
        </mxCell>
        <mxCell id="s5COHGNMD4PNr6RxPExq-347" value="200" style="endArrow=open;endSize=12;dashed=1;html=1;rounded=0;" parent="1" edge="1">
          <mxGeometry x="-0.0526" y="-15" width="160" relative="1" as="geometry">
            <mxPoint x="785" y="2480" as="sourcePoint" />
            <mxPoint x="680" y="2480" as="targetPoint" />
            <mxPoint x="1" as="offset" />
          </mxGeometry>
        </mxCell>
        <mxCell id="s5COHGNMD4PNr6RxPExq-350" value="POST : /chat/contents&lt;div&gt;{chatId}&lt;/div&gt;" style="endArrow=open;endSize=12;dashed=1;html=1;rounded=0;" parent="1" edge="1">
          <mxGeometry x="0.1872" y="20" width="160" relative="1" as="geometry">
            <mxPoint x="680.5" y="2530" as="sourcePoint" />
            <mxPoint x="790" y="2530" as="targetPoint" />
            <Array as="points" />
            <mxPoint as="offset" />
          </mxGeometry>
        </mxCell>
        <mxCell id="s5COHGNMD4PNr6RxPExq-354" value="db.chats.find({chatId:chatId})" style="endArrow=open;endSize=12;dashed=1;html=1;rounded=0;" parent="1" edge="1">
          <mxGeometry x="0.4521" y="20" width="160" relative="1" as="geometry">
            <mxPoint x="800.5" y="2540" as="sourcePoint" />
            <mxPoint x="910" y="2540" as="targetPoint" />
            <Array as="points" />
            <mxPoint as="offset" />
          </mxGeometry>
        </mxCell>
        <mxCell id="s5COHGNMD4PNr6RxPExq-355" value="[{chatId,roomId,user,createdAt}]" style="endArrow=open;endSize=12;dashed=1;html=1;rounded=0;" parent="1" edge="1">
          <mxGeometry x="-0.7143" y="20" width="160" relative="1" as="geometry">
            <mxPoint x="905" y="2580" as="sourcePoint" />
            <mxPoint x="800" y="2580" as="targetPoint" />
            <mxPoint as="offset" />
          </mxGeometry>
        </mxCell>
        <mxCell id="s5COHGNMD4PNr6RxPExq-356" value="&amp;nbsp;db.rooms.find({roomId:roomId},{title:1})" style="endArrow=open;endSize=12;dashed=1;html=1;rounded=0;" parent="1" edge="1">
          <mxGeometry x="0.8174" y="14" width="160" relative="1" as="geometry">
            <mxPoint x="800.5" y="2634" as="sourcePoint" />
            <mxPoint x="910" y="2634" as="targetPoint" />
            <Array as="points" />
            <mxPoint as="offset" />
          </mxGeometry>
        </mxCell>
        <mxCell id="s5COHGNMD4PNr6RxPExq-358" value="[{title}]" style="endArrow=open;endSize=12;dashed=1;html=1;rounded=0;" parent="1" edge="1">
          <mxGeometry x="0.0476" y="10" width="160" relative="1" as="geometry">
            <mxPoint x="905" y="2670" as="sourcePoint" />
            <mxPoint x="800" y="2670" as="targetPoint" />
            <mxPoint as="offset" />
          </mxGeometry>
        </mxCell>
        <mxCell id="s5COHGNMD4PNr6RxPExq-361" value="&lt;div&gt;200&lt;/div&gt;{chatId,title,user,createdAt} JSON" style="endArrow=open;endSize=12;dashed=1;html=1;rounded=0;" parent="1" edge="1">
          <mxGeometry x="-0.7143" y="20" width="160" relative="1" as="geometry">
            <mxPoint x="785" y="2680" as="sourcePoint" />
            <mxPoint x="680" y="2680" as="targetPoint" />
            <mxPoint as="offset" />
          </mxGeometry>
        </mxCell>
        <mxCell id="s5COHGNMD4PNr6RxPExq-362" value="POST : /chat/recomments&lt;div&gt;{chatId}&lt;/div&gt;" style="endArrow=open;endSize=12;dashed=1;html=1;rounded=0;" parent="1" edge="1">
          <mxGeometry x="0.1872" y="20" width="160" relative="1" as="geometry">
            <mxPoint x="680.5" y="2780" as="sourcePoint" />
            <mxPoint x="790" y="2780" as="targetPoint" />
            <Array as="points" />
            <mxPoint as="offset" />
          </mxGeometry>
        </mxCell>
        <mxCell id="s5COHGNMD4PNr6RxPExq-366" value="[{user,content,createdAt}, ...]" style="endArrow=open;endSize=12;dashed=1;html=1;rounded=0;" parent="1" edge="1">
          <mxGeometry x="-0.3333" y="20" width="160" relative="1" as="geometry">
            <mxPoint x="905" y="2830" as="sourcePoint" />
            <mxPoint x="800" y="2830" as="targetPoint" />
            <mxPoint as="offset" />
          </mxGeometry>
        </mxCell>
        <mxCell id="s5COHGNMD4PNr6RxPExq-367" value="200&lt;div&gt;Arr JSON&lt;/div&gt;" style="endArrow=open;endSize=12;dashed=1;html=1;rounded=0;" parent="1" edge="1">
          <mxGeometry x="-0.3333" y="20" width="160" relative="1" as="geometry">
            <mxPoint x="785" y="2850" as="sourcePoint" />
            <mxPoint x="680" y="2850" as="targetPoint" />
            <mxPoint as="offset" />
          </mxGeometry>
        </mxCell>
        <mxCell id="TgLb7naTuCz-aT_ZFoOc-6" value="Client" style="shape=umlLifeline;perimeter=lifelinePerimeter;whiteSpace=wrap;html=1;container=1;dropTarget=0;collapsible=0;recursiveResize=0;outlineConnect=0;portConstraint=eastwest;newEdgeStyle={&quot;curved&quot;:0,&quot;rounded&quot;:0};" vertex="1" parent="1">
          <mxGeometry x="-465" y="90" width="100" height="220" as="geometry" />
        </mxCell>
        <mxCell id="TgLb7naTuCz-aT_ZFoOc-7" value="Server" style="shape=umlLifeline;perimeter=lifelinePerimeter;whiteSpace=wrap;html=1;container=1;dropTarget=0;collapsible=0;recursiveResize=0;outlineConnect=0;portConstraint=eastwest;newEdgeStyle={&quot;curved&quot;:0,&quot;rounded&quot;:0};" vertex="1" parent="1">
          <mxGeometry x="-355" y="90" width="100" height="220" as="geometry" />
        </mxCell>
        <mxCell id="TgLb7naTuCz-aT_ZFoOc-8" value="MongoDB" style="shape=umlLifeline;perimeter=lifelinePerimeter;whiteSpace=wrap;html=1;container=1;dropTarget=0;collapsible=0;recursiveResize=0;outlineConnect=0;portConstraint=eastwest;newEdgeStyle={&quot;curved&quot;:0,&quot;rounded&quot;:0};" vertex="1" parent="1">
          <mxGeometry x="-245" y="90" width="100" height="230" as="geometry" />
        </mxCell>
        <mxCell id="TgLb7naTuCz-aT_ZFoOc-9" value="" style="html=1;points=[[0,0,0,0,5],[0,1,0,0,-5],[1,0,0,0,5],[1,1,0,0,-5]];perimeter=orthogonalPerimeter;outlineConnect=0;targetShapes=umlLifeline;portConstraint=eastwest;newEdgeStyle={&quot;curved&quot;:0,&quot;rounded&quot;:0};" vertex="1" parent="TgLb7naTuCz-aT_ZFoOc-8">
          <mxGeometry x="45" y="110" width="10" height="40" as="geometry" />
        </mxCell>
        <mxCell id="TgLb7naTuCz-aT_ZFoOc-10" value="DB에서 목록조회" style="endArrow=open;endSize=12;dashed=1;html=1;rounded=0;" edge="1" parent="TgLb7naTuCz-aT_ZFoOc-8" target="TgLb7naTuCz-aT_ZFoOc-9">
          <mxGeometry x="0.0526" y="10" width="160" relative="1" as="geometry">
            <mxPoint x="-50" y="120" as="sourcePoint" />
            <mxPoint x="-55" y="105" as="targetPoint" />
            <Array as="points" />
            <mxPoint as="offset" />
          </mxGeometry>
        </mxCell>
        <mxCell id="TgLb7naTuCz-aT_ZFoOc-11" value="nginx" style="shape=umlLifeline;perimeter=lifelinePerimeter;whiteSpace=wrap;html=1;container=1;dropTarget=0;collapsible=0;recursiveResize=0;outlineConnect=0;portConstraint=eastwest;newEdgeStyle={&quot;curved&quot;:0,&quot;rounded&quot;:0};" vertex="1" parent="1">
          <mxGeometry x="-575" y="90" width="100" height="220" as="geometry" />
        </mxCell>
        <mxCell id="TgLb7naTuCz-aT_ZFoOc-12" value="" style="endArrow=open;endSize=12;dashed=1;html=1;rounded=0;" edge="1" parent="1" source="TgLb7naTuCz-aT_ZFoOc-13" target="TgLb7naTuCz-aT_ZFoOc-11">
          <mxGeometry width="160" relative="1" as="geometry">
            <mxPoint x="-435" y="280" as="sourcePoint" />
            <mxPoint x="-285" y="280" as="targetPoint" />
            <Array as="points" />
          </mxGeometry>
        </mxCell>
        <mxCell id="TgLb7naTuCz-aT_ZFoOc-13" value="" style="html=1;points=[[0,0,0,0,5],[0,1,0,0,-5],[1,0,0,0,5],[1,1,0,0,-5]];perimeter=orthogonalPerimeter;outlineConnect=0;targetShapes=umlLifeline;portConstraint=eastwest;newEdgeStyle={&quot;curved&quot;:0,&quot;rounded&quot;:0};" vertex="1" parent="1">
          <mxGeometry x="-530" y="140" width="10" height="30" as="geometry" />
        </mxCell>
        <mxCell id="TgLb7naTuCz-aT_ZFoOc-14" value="" style="html=1;points=[[0,0,0,0,5],[0,1,0,0,-5],[1,0,0,0,5],[1,1,0,0,-5]];perimeter=orthogonalPerimeter;outlineConnect=0;targetShapes=umlLifeline;portConstraint=eastwest;newEdgeStyle={&quot;curved&quot;:0,&quot;rounded&quot;:0};" vertex="1" parent="1">
          <mxGeometry x="-420" y="180" width="10" height="20" as="geometry" />
        </mxCell>
        <mxCell id="TgLb7naTuCz-aT_ZFoOc-15" value="GET : /" style="endArrow=open;endSize=12;dashed=1;html=1;rounded=0;entryX=1;entryY=0;entryDx=0;entryDy=5;entryPerimeter=0;" edge="1" parent="1" source="TgLb7naTuCz-aT_ZFoOc-6" target="TgLb7naTuCz-aT_ZFoOc-13">
          <mxGeometry width="160" relative="1" as="geometry">
            <mxPoint x="-445" y="280" as="sourcePoint" />
            <mxPoint x="-285" y="280" as="targetPoint" />
          </mxGeometry>
        </mxCell>
        <mxCell id="TgLb7naTuCz-aT_ZFoOc-16" value="메인페이지 front" style="endArrow=open;endSize=12;dashed=1;html=1;rounded=0;exitX=1;exitY=1;exitDx=0;exitDy=-5;exitPerimeter=0;entryX=0;entryY=0;entryDx=0;entryDy=5;entryPerimeter=0;" edge="1" parent="1" source="TgLb7naTuCz-aT_ZFoOc-13" target="TgLb7naTuCz-aT_ZFoOc-14">
          <mxGeometry width="160" relative="1" as="geometry">
            <mxPoint x="-75" y="280" as="sourcePoint" />
            <mxPoint x="85" y="280" as="targetPoint" />
            <Array as="points" />
          </mxGeometry>
        </mxCell>
        <mxCell id="TgLb7naTuCz-aT_ZFoOc-17" value="" style="html=1;points=[[0,0,0,0,5],[0,1,0,0,-5],[1,0,0,0,5],[1,1,0,0,-5]];perimeter=orthogonalPerimeter;outlineConnect=0;targetShapes=umlLifeline;portConstraint=eastwest;newEdgeStyle={&quot;curved&quot;:0,&quot;rounded&quot;:0};" vertex="1" parent="1">
          <mxGeometry x="-310" y="180" width="10" height="80" as="geometry" />
        </mxCell>
        <mxCell id="TgLb7naTuCz-aT_ZFoOc-18" value="랜덤방 목록요청" style="endArrow=open;endSize=12;dashed=1;html=1;rounded=0;" edge="1" parent="1" target="TgLb7naTuCz-aT_ZFoOc-17">
          <mxGeometry x="0.0526" y="20" width="160" relative="1" as="geometry">
            <mxPoint x="-405" y="190" as="sourcePoint" />
            <mxPoint x="-410" y="175" as="targetPoint" />
            <Array as="points">
              <mxPoint x="-355" y="190" />
            </Array>
            <mxPoint as="offset" />
          </mxGeometry>
        </mxCell>
        <mxCell id="TgLb7naTuCz-aT_ZFoOc-19" value="방 정보 전달" style="endArrow=open;endSize=12;dashed=1;html=1;rounded=0;exitX=0;exitY=1;exitDx=0;exitDy=-5;exitPerimeter=0;" edge="1" parent="1" source="TgLb7naTuCz-aT_ZFoOc-9" target="TgLb7naTuCz-aT_ZFoOc-17">
          <mxGeometry x="-0.3" y="-15" width="160" relative="1" as="geometry">
            <mxPoint x="-75" y="280" as="sourcePoint" />
            <mxPoint x="85" y="280" as="targetPoint" />
            <mxPoint as="offset" />
          </mxGeometry>
        </mxCell>
        <mxCell id="TgLb7naTuCz-aT_ZFoOc-20" value="&lt;div&gt;방목록 출력&lt;/div&gt;" style="endArrow=open;endSize=12;dashed=1;html=1;rounded=0;exitX=0;exitY=1;exitDx=0;exitDy=-5;exitPerimeter=0;" edge="1" parent="1">
          <mxGeometry x="-0.1" y="-10" width="160" relative="1" as="geometry">
            <mxPoint x="-310" y="250" as="sourcePoint" />
            <mxPoint x="-410" y="250" as="targetPoint" />
            <mxPoint as="offset" />
          </mxGeometry>
        </mxCell>
        <mxCell id="TgLb7naTuCz-aT_ZFoOc-33" value="" style="html=1;points=[[0,0,0,0,5],[0,1,0,0,-5],[1,0,0,0,5],[1,1,0,0,-5]];perimeter=orthogonalPerimeter;outlineConnect=0;targetShapes=umlLifeline;portConstraint=eastwest;newEdgeStyle={&quot;curved&quot;:0,&quot;rounded&quot;:0};" vertex="1" parent="1">
          <mxGeometry x="-420" y="240" width="10" height="20" as="geometry" />
        </mxCell>
        <mxCell id="TgLb7naTuCz-aT_ZFoOc-38" value="&lt;span style=&quot;background-color: initial;&quot;&gt;GET : /&lt;/span&gt;" style="shape=umlFrame;whiteSpace=wrap;html=1;pointerEvents=0;" vertex="1" parent="1">
          <mxGeometry x="-600" y="370" width="480" height="290" as="geometry" />
        </mxCell>
        <mxCell id="TgLb7naTuCz-aT_ZFoOc-39" value="Client" style="shape=umlLifeline;perimeter=lifelinePerimeter;whiteSpace=wrap;html=1;container=1;dropTarget=0;collapsible=0;recursiveResize=0;outlineConnect=0;portConstraint=eastwest;newEdgeStyle={&quot;curved&quot;:0,&quot;rounded&quot;:0};" vertex="1" parent="1">
          <mxGeometry x="-465" y="410" width="100" height="220" as="geometry" />
        </mxCell>
        <mxCell id="TgLb7naTuCz-aT_ZFoOc-40" value="Server" style="shape=umlLifeline;perimeter=lifelinePerimeter;whiteSpace=wrap;html=1;container=1;dropTarget=0;collapsible=0;recursiveResize=0;outlineConnect=0;portConstraint=eastwest;newEdgeStyle={&quot;curved&quot;:0,&quot;rounded&quot;:0};" vertex="1" parent="1">
          <mxGeometry x="-355" y="410" width="100" height="220" as="geometry" />
        </mxCell>
        <mxCell id="TgLb7naTuCz-aT_ZFoOc-41" value="MongoDB" style="shape=umlLifeline;perimeter=lifelinePerimeter;whiteSpace=wrap;html=1;container=1;dropTarget=0;collapsible=0;recursiveResize=0;outlineConnect=0;portConstraint=eastwest;newEdgeStyle={&quot;curved&quot;:0,&quot;rounded&quot;:0};" vertex="1" parent="1">
          <mxGeometry x="-245" y="410" width="100" height="230" as="geometry" />
        </mxCell>
        <mxCell id="TgLb7naTuCz-aT_ZFoOc-42" value="" style="html=1;points=[[0,0,0,0,5],[0,1,0,0,-5],[1,0,0,0,5],[1,1,0,0,-5]];perimeter=orthogonalPerimeter;outlineConnect=0;targetShapes=umlLifeline;portConstraint=eastwest;newEdgeStyle={&quot;curved&quot;:0,&quot;rounded&quot;:0};" vertex="1" parent="TgLb7naTuCz-aT_ZFoOc-41">
          <mxGeometry x="45" y="110" width="10" height="40" as="geometry" />
        </mxCell>
        <mxCell id="TgLb7naTuCz-aT_ZFoOc-43" value="DB에서 목록조회" style="endArrow=open;endSize=12;dashed=1;html=1;rounded=0;" edge="1" parent="TgLb7naTuCz-aT_ZFoOc-41" target="TgLb7naTuCz-aT_ZFoOc-42">
          <mxGeometry x="0.0526" y="10" width="160" relative="1" as="geometry">
            <mxPoint x="-50" y="120" as="sourcePoint" />
            <mxPoint x="-55" y="105" as="targetPoint" />
            <Array as="points" />
            <mxPoint as="offset" />
          </mxGeometry>
        </mxCell>
        <mxCell id="TgLb7naTuCz-aT_ZFoOc-44" value="nginx" style="shape=umlLifeline;perimeter=lifelinePerimeter;whiteSpace=wrap;html=1;container=1;dropTarget=0;collapsible=0;recursiveResize=0;outlineConnect=0;portConstraint=eastwest;newEdgeStyle={&quot;curved&quot;:0,&quot;rounded&quot;:0};" vertex="1" parent="1">
          <mxGeometry x="-575" y="410" width="100" height="220" as="geometry" />
        </mxCell>
        <mxCell id="TgLb7naTuCz-aT_ZFoOc-45" value="" style="endArrow=open;endSize=12;dashed=1;html=1;rounded=0;" edge="1" parent="1" source="TgLb7naTuCz-aT_ZFoOc-46" target="TgLb7naTuCz-aT_ZFoOc-44">
          <mxGeometry width="160" relative="1" as="geometry">
            <mxPoint x="-435" y="600" as="sourcePoint" />
            <mxPoint x="-285" y="600" as="targetPoint" />
            <Array as="points" />
          </mxGeometry>
        </mxCell>
        <mxCell id="TgLb7naTuCz-aT_ZFoOc-46" value="" style="html=1;points=[[0,0,0,0,5],[0,1,0,0,-5],[1,0,0,0,5],[1,1,0,0,-5]];perimeter=orthogonalPerimeter;outlineConnect=0;targetShapes=umlLifeline;portConstraint=eastwest;newEdgeStyle={&quot;curved&quot;:0,&quot;rounded&quot;:0};" vertex="1" parent="1">
          <mxGeometry x="-530" y="460" width="10" height="30" as="geometry" />
        </mxCell>
        <mxCell id="TgLb7naTuCz-aT_ZFoOc-47" value="" style="html=1;points=[[0,0,0,0,5],[0,1,0,0,-5],[1,0,0,0,5],[1,1,0,0,-5]];perimeter=orthogonalPerimeter;outlineConnect=0;targetShapes=umlLifeline;portConstraint=eastwest;newEdgeStyle={&quot;curved&quot;:0,&quot;rounded&quot;:0};" vertex="1" parent="1">
          <mxGeometry x="-420" y="500" width="10" height="20" as="geometry" />
        </mxCell>
        <mxCell id="TgLb7naTuCz-aT_ZFoOc-48" value="GET : /" style="endArrow=open;endSize=12;dashed=1;html=1;rounded=0;entryX=1;entryY=0;entryDx=0;entryDy=5;entryPerimeter=0;" edge="1" parent="1" source="TgLb7naTuCz-aT_ZFoOc-39" target="TgLb7naTuCz-aT_ZFoOc-46">
          <mxGeometry width="160" relative="1" as="geometry">
            <mxPoint x="-445" y="600" as="sourcePoint" />
            <mxPoint x="-285" y="600" as="targetPoint" />
          </mxGeometry>
        </mxCell>
        <mxCell id="TgLb7naTuCz-aT_ZFoOc-49" value="메인페이지 front" style="endArrow=open;endSize=12;dashed=1;html=1;rounded=0;exitX=1;exitY=1;exitDx=0;exitDy=-5;exitPerimeter=0;entryX=0;entryY=0;entryDx=0;entryDy=5;entryPerimeter=0;" edge="1" parent="1" source="TgLb7naTuCz-aT_ZFoOc-46" target="TgLb7naTuCz-aT_ZFoOc-47">
          <mxGeometry width="160" relative="1" as="geometry">
            <mxPoint x="-75" y="600" as="sourcePoint" />
            <mxPoint x="85" y="600" as="targetPoint" />
            <Array as="points" />
          </mxGeometry>
        </mxCell>
        <mxCell id="TgLb7naTuCz-aT_ZFoOc-50" value="" style="html=1;points=[[0,0,0,0,5],[0,1,0,0,-5],[1,0,0,0,5],[1,1,0,0,-5]];perimeter=orthogonalPerimeter;outlineConnect=0;targetShapes=umlLifeline;portConstraint=eastwest;newEdgeStyle={&quot;curved&quot;:0,&quot;rounded&quot;:0};" vertex="1" parent="1">
          <mxGeometry x="-310" y="500" width="10" height="80" as="geometry" />
        </mxCell>
        <mxCell id="TgLb7naTuCz-aT_ZFoOc-51" value="화제방 목록요청" style="endArrow=open;endSize=12;dashed=1;html=1;rounded=0;" edge="1" parent="1" target="TgLb7naTuCz-aT_ZFoOc-50">
          <mxGeometry x="0.0526" y="20" width="160" relative="1" as="geometry">
            <mxPoint x="-405" y="510" as="sourcePoint" />
            <mxPoint x="-410" y="495" as="targetPoint" />
            <Array as="points">
              <mxPoint x="-355" y="510" />
            </Array>
            <mxPoint as="offset" />
          </mxGeometry>
        </mxCell>
        <mxCell id="TgLb7naTuCz-aT_ZFoOc-52" value="방 정보 전달" style="endArrow=open;endSize=12;dashed=1;html=1;rounded=0;exitX=0;exitY=1;exitDx=0;exitDy=-5;exitPerimeter=0;" edge="1" parent="1" source="TgLb7naTuCz-aT_ZFoOc-42" target="TgLb7naTuCz-aT_ZFoOc-50">
          <mxGeometry x="-0.3" y="-15" width="160" relative="1" as="geometry">
            <mxPoint x="-75" y="600" as="sourcePoint" />
            <mxPoint x="85" y="600" as="targetPoint" />
            <mxPoint as="offset" />
          </mxGeometry>
        </mxCell>
        <mxCell id="TgLb7naTuCz-aT_ZFoOc-53" value="&lt;div&gt;방목록 출력&lt;/div&gt;" style="endArrow=open;endSize=12;dashed=1;html=1;rounded=0;exitX=0;exitY=1;exitDx=0;exitDy=-5;exitPerimeter=0;" edge="1" parent="1">
          <mxGeometry x="-0.1" y="-10" width="160" relative="1" as="geometry">
            <mxPoint x="-310" y="570" as="sourcePoint" />
            <mxPoint x="-410" y="570" as="targetPoint" />
            <mxPoint as="offset" />
          </mxGeometry>
        </mxCell>
        <mxCell id="TgLb7naTuCz-aT_ZFoOc-54" value="" style="html=1;points=[[0,0,0,0,5],[0,1,0,0,-5],[1,0,0,0,5],[1,1,0,0,-5]];perimeter=orthogonalPerimeter;outlineConnect=0;targetShapes=umlLifeline;portConstraint=eastwest;newEdgeStyle={&quot;curved&quot;:0,&quot;rounded&quot;:0};" vertex="1" parent="1">
          <mxGeometry x="-420" y="560" width="10" height="20" as="geometry" />
        </mxCell>
        <mxCell id="TgLb7naTuCz-aT_ZFoOc-55" value="&lt;span style=&quot;background-color: initial;&quot;&gt;GET : /&lt;/span&gt;" style="shape=umlFrame;whiteSpace=wrap;html=1;pointerEvents=0;" vertex="1" parent="1">
          <mxGeometry x="-70" y="55" width="480" height="290" as="geometry" />
        </mxCell>
        <mxCell id="TgLb7naTuCz-aT_ZFoOc-56" value="Client" style="shape=umlLifeline;perimeter=lifelinePerimeter;whiteSpace=wrap;html=1;container=1;dropTarget=0;collapsible=0;recursiveResize=0;outlineConnect=0;portConstraint=eastwest;newEdgeStyle={&quot;curved&quot;:0,&quot;rounded&quot;:0};" vertex="1" parent="1">
          <mxGeometry x="60" y="90" width="100" height="220" as="geometry" />
        </mxCell>
        <mxCell id="TgLb7naTuCz-aT_ZFoOc-57" value="Server" style="shape=umlLifeline;perimeter=lifelinePerimeter;whiteSpace=wrap;html=1;container=1;dropTarget=0;collapsible=0;recursiveResize=0;outlineConnect=0;portConstraint=eastwest;newEdgeStyle={&quot;curved&quot;:0,&quot;rounded&quot;:0};" vertex="1" parent="1">
          <mxGeometry x="170" y="90" width="100" height="220" as="geometry" />
        </mxCell>
        <mxCell id="TgLb7naTuCz-aT_ZFoOc-58" value="MongoDB" style="shape=umlLifeline;perimeter=lifelinePerimeter;whiteSpace=wrap;html=1;container=1;dropTarget=0;collapsible=0;recursiveResize=0;outlineConnect=0;portConstraint=eastwest;newEdgeStyle={&quot;curved&quot;:0,&quot;rounded&quot;:0};" vertex="1" parent="1">
          <mxGeometry x="280" y="90" width="100" height="230" as="geometry" />
        </mxCell>
        <mxCell id="TgLb7naTuCz-aT_ZFoOc-59" value="" style="html=1;points=[[0,0,0,0,5],[0,1,0,0,-5],[1,0,0,0,5],[1,1,0,0,-5]];perimeter=orthogonalPerimeter;outlineConnect=0;targetShapes=umlLifeline;portConstraint=eastwest;newEdgeStyle={&quot;curved&quot;:0,&quot;rounded&quot;:0};" vertex="1" parent="TgLb7naTuCz-aT_ZFoOc-58">
          <mxGeometry x="45" y="110" width="10" height="40" as="geometry" />
        </mxCell>
        <mxCell id="TgLb7naTuCz-aT_ZFoOc-60" value="DB에서 목록조회" style="endArrow=open;endSize=12;dashed=1;html=1;rounded=0;" edge="1" parent="TgLb7naTuCz-aT_ZFoOc-58" target="TgLb7naTuCz-aT_ZFoOc-59">
          <mxGeometry x="0.0526" y="10" width="160" relative="1" as="geometry">
            <mxPoint x="-50" y="120" as="sourcePoint" />
            <mxPoint x="-55" y="105" as="targetPoint" />
            <Array as="points" />
            <mxPoint as="offset" />
          </mxGeometry>
        </mxCell>
        <mxCell id="TgLb7naTuCz-aT_ZFoOc-61" value="nginx" style="shape=umlLifeline;perimeter=lifelinePerimeter;whiteSpace=wrap;html=1;container=1;dropTarget=0;collapsible=0;recursiveResize=0;outlineConnect=0;portConstraint=eastwest;newEdgeStyle={&quot;curved&quot;:0,&quot;rounded&quot;:0};" vertex="1" parent="1">
          <mxGeometry x="-50" y="90" width="100" height="220" as="geometry" />
        </mxCell>
        <mxCell id="TgLb7naTuCz-aT_ZFoOc-62" value="" style="endArrow=open;endSize=12;dashed=1;html=1;rounded=0;" edge="1" parent="1" source="TgLb7naTuCz-aT_ZFoOc-63" target="TgLb7naTuCz-aT_ZFoOc-61">
          <mxGeometry width="160" relative="1" as="geometry">
            <mxPoint x="90" y="280" as="sourcePoint" />
            <mxPoint x="240" y="280" as="targetPoint" />
            <Array as="points" />
          </mxGeometry>
        </mxCell>
        <mxCell id="TgLb7naTuCz-aT_ZFoOc-63" value="" style="html=1;points=[[0,0,0,0,5],[0,1,0,0,-5],[1,0,0,0,5],[1,1,0,0,-5]];perimeter=orthogonalPerimeter;outlineConnect=0;targetShapes=umlLifeline;portConstraint=eastwest;newEdgeStyle={&quot;curved&quot;:0,&quot;rounded&quot;:0};" vertex="1" parent="1">
          <mxGeometry x="-5" y="140" width="10" height="30" as="geometry" />
        </mxCell>
        <mxCell id="TgLb7naTuCz-aT_ZFoOc-64" value="" style="html=1;points=[[0,0,0,0,5],[0,1,0,0,-5],[1,0,0,0,5],[1,1,0,0,-5]];perimeter=orthogonalPerimeter;outlineConnect=0;targetShapes=umlLifeline;portConstraint=eastwest;newEdgeStyle={&quot;curved&quot;:0,&quot;rounded&quot;:0};" vertex="1" parent="1">
          <mxGeometry x="105" y="180" width="10" height="20" as="geometry" />
        </mxCell>
        <mxCell id="TgLb7naTuCz-aT_ZFoOc-65" value="GET : /" style="endArrow=open;endSize=12;dashed=1;html=1;rounded=0;entryX=1;entryY=0;entryDx=0;entryDy=5;entryPerimeter=0;" edge="1" parent="1" source="TgLb7naTuCz-aT_ZFoOc-56" target="TgLb7naTuCz-aT_ZFoOc-63">
          <mxGeometry width="160" relative="1" as="geometry">
            <mxPoint x="80" y="280" as="sourcePoint" />
            <mxPoint x="240" y="280" as="targetPoint" />
          </mxGeometry>
        </mxCell>
        <mxCell id="TgLb7naTuCz-aT_ZFoOc-66" value="메인페이지 front" style="endArrow=open;endSize=12;dashed=1;html=1;rounded=0;exitX=1;exitY=1;exitDx=0;exitDy=-5;exitPerimeter=0;entryX=0;entryY=0;entryDx=0;entryDy=5;entryPerimeter=0;" edge="1" parent="1" source="TgLb7naTuCz-aT_ZFoOc-63" target="TgLb7naTuCz-aT_ZFoOc-64">
          <mxGeometry width="160" relative="1" as="geometry">
            <mxPoint x="450" y="280" as="sourcePoint" />
            <mxPoint x="610" y="280" as="targetPoint" />
            <Array as="points" />
          </mxGeometry>
        </mxCell>
        <mxCell id="TgLb7naTuCz-aT_ZFoOc-67" value="" style="html=1;points=[[0,0,0,0,5],[0,1,0,0,-5],[1,0,0,0,5],[1,1,0,0,-5]];perimeter=orthogonalPerimeter;outlineConnect=0;targetShapes=umlLifeline;portConstraint=eastwest;newEdgeStyle={&quot;curved&quot;:0,&quot;rounded&quot;:0};" vertex="1" parent="1">
          <mxGeometry x="215" y="180" width="10" height="80" as="geometry" />
        </mxCell>
        <mxCell id="TgLb7naTuCz-aT_ZFoOc-68" value="화제 댓글 목록요청" style="endArrow=open;endSize=12;dashed=1;html=1;rounded=0;" edge="1" parent="1" target="TgLb7naTuCz-aT_ZFoOc-67">
          <mxGeometry x="0.0526" y="20" width="160" relative="1" as="geometry">
            <mxPoint x="120" y="190" as="sourcePoint" />
            <mxPoint x="115" y="175" as="targetPoint" />
            <Array as="points">
              <mxPoint x="170" y="190" />
            </Array>
            <mxPoint as="offset" />
          </mxGeometry>
        </mxCell>
        <mxCell id="TgLb7naTuCz-aT_ZFoOc-69" value="화제댓글 정보 전달" style="endArrow=open;endSize=12;dashed=1;html=1;rounded=0;exitX=0;exitY=1;exitDx=0;exitDy=-5;exitPerimeter=0;" edge="1" parent="1" source="TgLb7naTuCz-aT_ZFoOc-59" target="TgLb7naTuCz-aT_ZFoOc-67">
          <mxGeometry x="-0.3" y="-15" width="160" relative="1" as="geometry">
            <mxPoint x="450" y="280" as="sourcePoint" />
            <mxPoint x="610" y="280" as="targetPoint" />
            <mxPoint as="offset" />
          </mxGeometry>
        </mxCell>
        <mxCell id="TgLb7naTuCz-aT_ZFoOc-70" value="&lt;div&gt;화제 댓글목록 출력&lt;/div&gt;" style="endArrow=open;endSize=12;dashed=1;html=1;rounded=0;exitX=0;exitY=1;exitDx=0;exitDy=-5;exitPerimeter=0;" edge="1" parent="1">
          <mxGeometry x="-0.0857" y="-10" width="160" relative="1" as="geometry">
            <mxPoint x="215" y="250" as="sourcePoint" />
            <mxPoint x="115" y="250" as="targetPoint" />
            <mxPoint as="offset" />
          </mxGeometry>
        </mxCell>
        <mxCell id="TgLb7naTuCz-aT_ZFoOc-71" value="" style="html=1;points=[[0,0,0,0,5],[0,1,0,0,-5],[1,0,0,0,5],[1,1,0,0,-5]];perimeter=orthogonalPerimeter;outlineConnect=0;targetShapes=umlLifeline;portConstraint=eastwest;newEdgeStyle={&quot;curved&quot;:0,&quot;rounded&quot;:0};" vertex="1" parent="1">
          <mxGeometry x="105" y="240" width="10" height="20" as="geometry" />
        </mxCell>
        <mxCell id="TgLb7naTuCz-aT_ZFoOc-72" value="" style="html=1;points=[[0,0,0,0,5],[0,1,0,0,-5],[1,0,0,0,5],[1,1,0,0,-5]];perimeter=orthogonalPerimeter;outlineConnect=0;targetShapes=umlLifeline;portConstraint=eastwest;newEdgeStyle={&quot;curved&quot;:0,&quot;rounded&quot;:0};" vertex="1" parent="1">
          <mxGeometry x="985" y="220" width="10" height="40" as="geometry" />
        </mxCell>
        <mxCell id="TgLb7naTuCz-aT_ZFoOc-73" value="" style="html=1;points=[[0,0,0,0,5],[0,1,0,0,-5],[1,0,0,0,5],[1,1,0,0,-5]];perimeter=orthogonalPerimeter;outlineConnect=0;targetShapes=umlLifeline;portConstraint=eastwest;newEdgeStyle={&quot;curved&quot;:0,&quot;rounded&quot;:0};" vertex="1" parent="1">
          <mxGeometry x="1095" y="160" width="10" height="40" as="geometry" />
        </mxCell>
        <mxCell id="s5COHGNMD4PNr6RxPExq-99" value="참여한 채팅방 목록 조회" style="endArrow=open;endSize=12;dashed=1;html=1;rounded=0;" parent="1" target="s5COHGNMD4PNr6RxPExq-98" edge="1" source="TgLb7naTuCz-aT_ZFoOc-80">
          <mxGeometry x="0.6842" y="20" width="160" relative="1" as="geometry">
            <mxPoint x="-110" y="860" as="sourcePoint" />
            <mxPoint x="-115" y="845" as="targetPoint" />
            <Array as="points" />
            <mxPoint as="offset" />
          </mxGeometry>
        </mxCell>
        <mxCell id="TgLb7naTuCz-aT_ZFoOc-76" value="참여한 채팅방 목록 전달" style="edgeLabel;html=1;align=center;verticalAlign=middle;resizable=0;points=[];" vertex="1" connectable="0" parent="s5COHGNMD4PNr6RxPExq-99">
          <mxGeometry x="-0.2032" y="-12" relative="1" as="geometry">
            <mxPoint x="-1" as="offset" />
          </mxGeometry>
        </mxCell>
        <mxCell id="TgLb7naTuCz-aT_ZFoOc-81" value="" style="html=1;points=[[0,0,0,0,5],[0,1,0,0,-5],[1,0,0,0,5],[1,1,0,0,-5]];perimeter=orthogonalPerimeter;outlineConnect=0;targetShapes=umlLifeline;portConstraint=eastwest;newEdgeStyle={&quot;curved&quot;:0,&quot;rounded&quot;:0};" vertex="1" parent="1">
          <mxGeometry x="-235" y="870" width="10" height="40" as="geometry" />
        </mxCell>
        <mxCell id="TgLb7naTuCz-aT_ZFoOc-82" value="" style="html=1;points=[[0,0,0,0,5],[0,1,0,0,-5],[1,0,0,0,5],[1,1,0,0,-5]];perimeter=orthogonalPerimeter;outlineConnect=0;targetShapes=umlLifeline;portConstraint=eastwest;newEdgeStyle={&quot;curved&quot;:0,&quot;rounded&quot;:0};" vertex="1" parent="1">
          <mxGeometry x="-415" y="810" width="10" height="40" as="geometry" />
        </mxCell>
        <mxCell id="TgLb7naTuCz-aT_ZFoOc-83" value="" style="html=1;points=[[0,0,0,0,5],[0,1,0,0,-5],[1,0,0,0,5],[1,1,0,0,-5]];perimeter=orthogonalPerimeter;outlineConnect=0;targetShapes=umlLifeline;portConstraint=eastwest;newEdgeStyle={&quot;curved&quot;:0,&quot;rounded&quot;:0};" vertex="1" parent="1">
          <mxGeometry x="-415" y="890" width="10" height="40" as="geometry" />
        </mxCell>
        <mxCell id="TgLb7naTuCz-aT_ZFoOc-86" value="Client" style="shape=umlLifeline;perimeter=lifelinePerimeter;whiteSpace=wrap;html=1;container=1;dropTarget=0;collapsible=0;recursiveResize=0;outlineConnect=0;portConstraint=eastwest;newEdgeStyle={&quot;curved&quot;:0,&quot;rounded&quot;:0};" vertex="1" parent="1">
          <mxGeometry x="245" y="740" width="100" height="300" as="geometry" />
        </mxCell>
        <mxCell id="TgLb7naTuCz-aT_ZFoOc-87" value="Server" style="shape=umlLifeline;perimeter=lifelinePerimeter;whiteSpace=wrap;html=1;container=1;dropTarget=0;collapsible=0;recursiveResize=0;outlineConnect=0;portConstraint=eastwest;newEdgeStyle={&quot;curved&quot;:0,&quot;rounded&quot;:0};" vertex="1" parent="1">
          <mxGeometry x="425" y="730" width="100" height="310" as="geometry" />
        </mxCell>
        <mxCell id="TgLb7naTuCz-aT_ZFoOc-88" value="" style="html=1;points=[[0,0,0,0,5],[0,1,0,0,-5],[1,0,0,0,5],[1,1,0,0,-5]];perimeter=orthogonalPerimeter;outlineConnect=0;targetShapes=umlLifeline;portConstraint=eastwest;newEdgeStyle={&quot;curved&quot;:0,&quot;rounded&quot;:0};" vertex="1" parent="TgLb7naTuCz-aT_ZFoOc-87">
          <mxGeometry x="45" y="90" width="10" height="40" as="geometry" />
        </mxCell>
        <mxCell id="TgLb7naTuCz-aT_ZFoOc-89" value="MongoDB" style="shape=umlLifeline;perimeter=lifelinePerimeter;whiteSpace=wrap;html=1;container=1;dropTarget=0;collapsible=0;recursiveResize=0;outlineConnect=0;portConstraint=eastwest;newEdgeStyle={&quot;curved&quot;:0,&quot;rounded&quot;:0};" vertex="1" parent="1">
          <mxGeometry x="645" y="740" width="100" height="300" as="geometry" />
        </mxCell>
        <mxCell id="TgLb7naTuCz-aT_ZFoOc-90" value="" style="html=1;points=[[0,0,0,0,5],[0,1,0,0,-5],[1,0,0,0,5],[1,1,0,0,-5]];perimeter=orthogonalPerimeter;outlineConnect=0;targetShapes=umlLifeline;portConstraint=eastwest;newEdgeStyle={&quot;curved&quot;:0,&quot;rounded&quot;:0};" vertex="1" parent="TgLb7naTuCz-aT_ZFoOc-89">
          <mxGeometry x="45" y="100" width="10" height="50" as="geometry" />
        </mxCell>
        <mxCell id="TgLb7naTuCz-aT_ZFoOc-91" value="nginx" style="shape=umlLifeline;perimeter=lifelinePerimeter;whiteSpace=wrap;html=1;container=1;dropTarget=0;collapsible=0;recursiveResize=0;outlineConnect=0;portConstraint=eastwest;newEdgeStyle={&quot;curved&quot;:0,&quot;rounded&quot;:0};" vertex="1" parent="1">
          <mxGeometry x="135" y="740" width="100" height="290" as="geometry" />
        </mxCell>
        <mxCell id="TgLb7naTuCz-aT_ZFoOc-92" value="&lt;span style=&quot;background-color: initial;&quot;&gt;GET : /user&lt;/span&gt;" style="shape=umlFrame;whiteSpace=wrap;html=1;pointerEvents=0;" vertex="1" parent="1">
          <mxGeometry x="105" y="685" width="690" height="370" as="geometry" />
        </mxCell>
        <mxCell id="TgLb7naTuCz-aT_ZFoOc-93" value="" style="endArrow=open;endSize=12;dashed=1;html=1;rounded=0;" edge="1" parent="1" source="TgLb7naTuCz-aT_ZFoOc-94" target="TgLb7naTuCz-aT_ZFoOc-91">
          <mxGeometry width="160" relative="1" as="geometry">
            <mxPoint x="275" y="930" as="sourcePoint" />
            <mxPoint x="425" y="930" as="targetPoint" />
            <Array as="points" />
          </mxGeometry>
        </mxCell>
        <mxCell id="TgLb7naTuCz-aT_ZFoOc-94" value="" style="html=1;points=[[0,0,0,0,5],[0,1,0,0,-5],[1,0,0,0,5],[1,1,0,0,-5]];perimeter=orthogonalPerimeter;outlineConnect=0;targetShapes=umlLifeline;portConstraint=eastwest;newEdgeStyle={&quot;curved&quot;:0,&quot;rounded&quot;:0};" vertex="1" parent="1">
          <mxGeometry x="180" y="790" width="10" height="30" as="geometry" />
        </mxCell>
        <mxCell id="TgLb7naTuCz-aT_ZFoOc-95" value="GET : /user" style="endArrow=open;endSize=12;dashed=1;html=1;rounded=0;entryX=1;entryY=0;entryDx=0;entryDy=5;entryPerimeter=0;" edge="1" parent="1" source="TgLb7naTuCz-aT_ZFoOc-86" target="TgLb7naTuCz-aT_ZFoOc-94">
          <mxGeometry width="160" relative="1" as="geometry">
            <mxPoint x="265" y="930" as="sourcePoint" />
            <mxPoint x="425" y="930" as="targetPoint" />
          </mxGeometry>
        </mxCell>
        <mxCell id="TgLb7naTuCz-aT_ZFoOc-96" value="유저 페이지 front" style="endArrow=open;endSize=12;dashed=1;html=1;rounded=0;exitX=1;exitY=1;exitDx=0;exitDy=-5;exitPerimeter=0;entryX=0;entryY=0;entryDx=0;entryDy=5;entryPerimeter=0;" edge="1" parent="1" source="TgLb7naTuCz-aT_ZFoOc-94">
          <mxGeometry width="160" relative="1" as="geometry">
            <mxPoint x="635" y="930" as="sourcePoint" />
            <mxPoint x="290" y="815" as="targetPoint" />
            <Array as="points" />
          </mxGeometry>
        </mxCell>
        <mxCell id="TgLb7naTuCz-aT_ZFoOc-97" value="&lt;div style=&quot;text-align: left;&quot;&gt;작성한 댓글 목록 요청&lt;/div&gt;" style="endArrow=open;endSize=12;dashed=1;html=1;rounded=0;" edge="1" parent="1">
          <mxGeometry x="0.2632" y="20" width="160" relative="1" as="geometry">
            <mxPoint x="305" y="840" as="sourcePoint" />
            <mxPoint x="470" y="840" as="targetPoint" />
            <Array as="points">
              <mxPoint x="355" y="840" />
            </Array>
            <mxPoint as="offset" />
          </mxGeometry>
        </mxCell>
        <mxCell id="TgLb7naTuCz-aT_ZFoOc-98" value="" style="endArrow=open;endSize=12;dashed=1;html=1;rounded=0;exitX=0;exitY=1;exitDx=0;exitDy=-5;exitPerimeter=0;" edge="1" parent="1" source="TgLb7naTuCz-aT_ZFoOc-90">
          <mxGeometry x="-0.3" y="-15" width="160" relative="1" as="geometry">
            <mxPoint x="635" y="930" as="sourcePoint" />
            <mxPoint x="480" y="885" as="targetPoint" />
            <mxPoint as="offset" />
          </mxGeometry>
        </mxCell>
        <mxCell id="TgLb7naTuCz-aT_ZFoOc-99" value="참여한 댓글 목록 출력" style="endArrow=open;endSize=12;dashed=1;html=1;rounded=0;" edge="1" parent="1">
          <mxGeometry x="-0.1" y="-10" width="160" relative="1" as="geometry">
            <mxPoint x="470" y="900" as="sourcePoint" />
            <mxPoint x="300" y="900" as="targetPoint" />
            <mxPoint as="offset" />
          </mxGeometry>
        </mxCell>
        <mxCell id="TgLb7naTuCz-aT_ZFoOc-100" value="" style="endArrow=open;endSize=12;dashed=1;html=1;rounded=0;" edge="1" parent="1" source="TgLb7naTuCz-aT_ZFoOc-88" target="TgLb7naTuCz-aT_ZFoOc-90">
          <mxGeometry x="0.6842" y="20" width="160" relative="1" as="geometry">
            <mxPoint x="595" y="860" as="sourcePoint" />
            <mxPoint x="590" y="845" as="targetPoint" />
            <Array as="points" />
            <mxPoint as="offset" />
          </mxGeometry>
        </mxCell>
        <mxCell id="TgLb7naTuCz-aT_ZFoOc-101" value="작성한 댓글 목록 전달" style="edgeLabel;html=1;align=center;verticalAlign=middle;resizable=0;points=[];" vertex="1" connectable="0" parent="TgLb7naTuCz-aT_ZFoOc-100">
          <mxGeometry x="-0.2032" y="-12" relative="1" as="geometry">
            <mxPoint x="17" y="18" as="offset" />
          </mxGeometry>
        </mxCell>
        <mxCell id="TgLb7naTuCz-aT_ZFoOc-102" value="" style="html=1;points=[[0,0,0,0,5],[0,1,0,0,-5],[1,0,0,0,5],[1,1,0,0,-5]];perimeter=orthogonalPerimeter;outlineConnect=0;targetShapes=umlLifeline;portConstraint=eastwest;newEdgeStyle={&quot;curved&quot;:0,&quot;rounded&quot;:0};" vertex="1" parent="1">
          <mxGeometry x="470" y="870" width="10" height="40" as="geometry" />
        </mxCell>
        <mxCell id="TgLb7naTuCz-aT_ZFoOc-103" value="" style="html=1;points=[[0,0,0,0,5],[0,1,0,0,-5],[1,0,0,0,5],[1,1,0,0,-5]];perimeter=orthogonalPerimeter;outlineConnect=0;targetShapes=umlLifeline;portConstraint=eastwest;newEdgeStyle={&quot;curved&quot;:0,&quot;rounded&quot;:0};" vertex="1" parent="1">
          <mxGeometry x="290" y="810" width="10" height="40" as="geometry" />
        </mxCell>
        <mxCell id="TgLb7naTuCz-aT_ZFoOc-104" value="" style="html=1;points=[[0,0,0,0,5],[0,1,0,0,-5],[1,0,0,0,5],[1,1,0,0,-5]];perimeter=orthogonalPerimeter;outlineConnect=0;targetShapes=umlLifeline;portConstraint=eastwest;newEdgeStyle={&quot;curved&quot;:0,&quot;rounded&quot;:0};" vertex="1" parent="1">
          <mxGeometry x="290" y="890" width="10" height="40" as="geometry" />
        </mxCell>
        <mxCell id="TgLb7naTuCz-aT_ZFoOc-105" value="DB에서&amp;nbsp;&lt;div&gt;작성한 댓글 목록 조회&lt;/div&gt;" style="text;html=1;align=center;verticalAlign=middle;resizable=0;points=[];autosize=1;strokeColor=none;fillColor=none;" vertex="1" parent="1">
          <mxGeometry x="500" y="803" width="140" height="40" as="geometry" />
        </mxCell>
      </root>
    </mxGraphModel>
  </diagram>
</mxfile>
